<?xml version="1.0" encoding="UTF-8" standalone="no"?>
<svg
   xmlns:dc="http://purl.org/dc/elements/1.1/"
   xmlns:cc="http://creativecommons.org/ns#"
   xmlns:rdf="http://www.w3.org/1999/02/22-rdf-syntax-ns#"
   xmlns:svg="http://www.w3.org/2000/svg"
   xmlns="http://www.w3.org/2000/svg"
   xml:space="preserve"
   enable-background="new 0 0 478.667 99"
   viewBox="0 0 478.667 99"
   height="99px"
   width="478.667px"
   y="0px"
   x="0px"
   id="Layer_1"
   version="1.1"><metadata
     id="metadata5598"><rdf:RDF><cc:Work
         rdf:about=""><dc:format>image/svg+xml</dc:format><dc:type
           rdf:resource="http://purl.org/dc/dcmitype/StillImage" /><dc:title></dc:title></cc:Work></rdf:RDF></metadata><defs
     id="defs5596" /><path
     d="  M51.027,84.822l6.347-17.992l-2.057-1.801l-0.625,0.252l-1.175,3.734l-0.899,1.156l-1.543,0.644l-1.286-0.386l-2.313-0.771  l-8.613-1.157l-1.671,1.157l-1.414,0.514l-0.9-0.129l-0.385-0.771l-0.386-0.643l-1.8,1.542l-1.415,0.9l-0.771-0.257h-1.286  l-1.542,0.899l-1.47,0.114l-0.202-1.399l-0.228-1.84l-0.543,1.453l-2.957,2.058l-1.285,0.386l0.514-1.671l1.028-1.929l0.467-0.867  l-1.753,1.511l-3.856,2.185l-1.157,0.643l0.128-1.414l2.58-3.384l-0.78-0.729l-0.555-0.255l-2.787,2.44l-1.415,1.027l-2.057,0.9  h-0.9l-0.385-0.386l5.142-4.242l-0.888-1.268l-3.74,2.167L8.01,68.372l-2.571,0.772l-0.643-0.258l2.981-1.826l2.368-1.612  l-0.765-1.189l-4.358,1.858l-0.625-0.132l5.998-3.243l3.508-2.174l-0.245-1.107l4.251-1.758l3.936-1.885l3.906-2.357l2.102-2.023  l2.269-2.734l4.371-2.828l4.499-1.671l0.771,0.128l2.957,1.801l0.934,0.781l0.981,0.105l0.609-0.139l0.175-0.619V45.36l-0.396-1.05  l-0.761-1.006l0.024-0.69l0.294-0.605l0.782-0.62l33.995,39.179l-1.285,0.274l-0.642,0.386l-0.258,1.029l-0.257,0.899L76.6,83.629  l-1.024,0.502l-1.25,0.407l-0.496,0.289l-0.514,0.899l-1.157,0.258l-0.826,0.248l-0.974,0.394l-0.878,0.502l-1.692-0.502  l-0.764-0.049l-0.78,0.178l-0.642,1.029H64.83l-1.671-0.772l-0.844-0.983l-0.267-0.185l-0.237,0.015l-1.223,0.896l-0.643,0.9  l-0.801,0.103l-1.194-0.099l-2.583-0.397l-1.107-1.034l-0.483-0.055l-1.605-0.549L51.027,84.822z"
     fill="#010101"
     id="path3906" /><path
     d="  M84.336,52.715l-17.668,6.542l-1.3-2.404l0.384-0.554l3.901-0.318l3.074-4.406l0.261-0.946l-1.131,2.03l2.795-5.297l-0.095-4.913  l0.293-1.332l0.689-1.639l0.531-0.99l0.29-0.63l0.54-0.851l0.488-1.456l0.027-0.514l-0.039-1.059l1.408-0.672  c-0.231-0.768,2.518-2.442,1.26-2.594l-0.021-1.99l1.673-2.17l-2.118,1.075l-0.041,0.208l0.124-2.013l1.741-0.918l-2.824-0.119  l-0.528-0.38l1.13-0.859l-1.799,0.705l2.986-3.277l0.883-0.986l-1.408-0.188l-3.87,1.767l-0.541-0.923l-0.124-0.597l2.995-2.178  l3.188-2.191L79,15.328l-0.425-1.003l1.83-3.164l-4.818,6.487L74.547,16.5l2.941-3.167l1.612-1.875l1.321-2.336l-0.108-0.684  l-2.44,2.502l-2.097,1.953l-0.991-1.01l2.777-3.839l0.01-0.639l-4.49,5.13l-2.896,2.94l-1.025-0.483l-2.656,3.756l-2.708,3.421  l-3.165,3.287l-2.438,1.601l-3.168,1.608l-3.727,3.637l-2.625,4.017l-0.045,0.781l1.1,3.281l0.556,1.085l-0.114,0.979l-0.271,0.563  l-0.644,0.034l-0.876-0.199l-0.937-0.619l-0.813-0.965l-0.679-0.13l-0.656,0.152l-0.777,0.625l30.681,41.825l0.552-1.191  l0.518-0.542l1.06-0.022l0.934-0.052l0.531-0.202l0.716-0.887l0.674-1.13l0.391-0.419l0.992-0.304l0.506-1.07l0.426-0.751l0.6-0.862  l0.683-0.746l-0.113-1.761l0.398-0.478l0.579-0.442l0.635-0.956l0.17-0.752l-0.382-1.801l-0.078-0.81l0.157-0.207l0.299,0.236  l0.636-1.458l0.324-0.754l0.277-0.757l0.168-1.186l0.323-1.958l-0.901-1.959l0.517-1.179l-0.689-4.701L84.336,52.715z"
     fill="#010101"
     id="path3906-6" /><text
     id="text5591"
     letter-spacing="-2"
     font-size="100"
     font-family="'BellMT'"
     stroke-miterlimit="10"
     stroke="#EDC71A"
     fill="#EDC71A"
     transform="matrix(1 0 0 1 95.5 83.7344)">Liberland</text>
</svg>