<?xml version="1.0" encoding="UTF-8" standalone="no"?>
<svg
   xmlns:dc="http://purl.org/dc/elements/1.1/"
   xmlns:cc="http://creativecommons.org/ns#"
   xmlns:rdf="http://www.w3.org/1999/02/22-rdf-syntax-ns#"
   xmlns:svg="http://www.w3.org/2000/svg"
   xmlns="http://www.w3.org/2000/svg"
   xml:space="preserve"
   enable-background="new 0 0 200 200"
   viewBox="0 0 200 200"
   height="200px"
   width="200px"
   y="0px"
   x="0px"
   id="Layer_1"
   version="1.1"><metadata
     id="metadata5662"><rdf:RDF><cc:Work
         rdf:about=""><dc:format>image/svg+xml</dc:format><dc:type
           rdf:resource="http://purl.org/dc/dcmitype/StillImage" /><dc:title></dc:title></cc:Work></rdf:RDF></metadata><defs
     id="defs5660" /><path
     d="  M111.886,185.547l14.997-42.521l-4.86-4.254l-1.478,0.595l-2.775,8.825l-2.126,2.733l-3.646,1.519l-3.038-0.912l-5.467-1.822  l-20.355-2.734l-3.949,2.734l-3.342,1.216l-2.126-0.305l-0.911-1.823l-0.912-1.518l-4.253,3.646l-3.342,2.126l-1.823-0.607h-3.038  l-3.646,2.126l-3.473,0.27l-0.477-3.308l-0.538-4.348l-1.284,3.437l-6.988,4.861l-3.038,0.912l1.215-3.95l2.431-4.559l1.104-2.048  l-4.143,3.569l-9.113,5.163l-2.734,1.519l0.303-3.342l6.096-7.995l-1.843-1.726l-1.312-0.601l-6.587,5.767l-3.342,2.429l-4.86,2.126  h-2.127l-0.911-0.911l12.151-10.025l-2.099-2.996l-8.838,5.123l-5.164,2.734l-6.077,1.823l-1.519-0.609l7.044-4.313l5.597-3.811  l-1.808-2.811l-10.299,4.392l-1.478-0.312l14.172-7.665l8.292-5.137l-0.579-2.616l10.046-4.156l9.3-4.452l9.231-5.572l4.966-4.781  l5.362-6.46l10.33-6.684l10.632-3.949l1.823,0.304l6.987,4.253l2.207,1.848l2.319,0.248l1.438-0.329l0.415-1.463v-2.127l-0.936-2.48  l-1.798-2.379l0.056-1.631l0.695-1.433l1.848-1.463l80.335,92.585l-3.036,0.649l-1.518,0.911l-0.608,2.432l-0.607,2.125  l-0.744,1.117l-2.42,1.188l-2.955,0.962l-1.172,0.683l-1.215,2.127l-2.735,0.607l-1.952,0.587l-2.301,0.931l-2.076,1.185  l-3.999-1.185l-1.805-0.117l-1.842,0.422l-1.518,2.431h-1.823l-3.949-1.823l-1.994-2.326l-0.631-0.437l-0.561,0.034l-2.891,2.121  l-1.519,2.127l-1.892,0.241l-2.822-0.232l-6.104-0.94l-2.616-2.442l-1.143-0.13l-3.793-1.296L111.886,185.547z"
     fill="#010101"
     id="path3906" /><path
     d="  M190.601,109.671l-41.754,15.461l-3.072-5.683l0.908-1.309l9.219-0.753l7.265-10.413l0.617-2.235l-2.673,4.797l6.606-12.517  l-0.224-11.61l0.691-3.148l1.63-3.874l1.255-2.338l0.685-1.489l1.276-2.011l1.154-3.439l0.063-1.215l-0.091-2.502l3.326-1.586  c-0.546-1.814,5.95-5.771,2.979-6.131l-0.049-4.703l3.955-5.128l-5.006,2.542l-0.098,0.491l0.292-4.754l4.115-2.171l-6.674-0.279  l-1.247-0.898l2.67-2.031l-4.252,1.665l7.056-7.745l2.087-2.33l-3.327-0.443l-9.146,4.174l-1.276-2.18l-0.293-1.412l7.079-5.147  l7.532-5.178l-5.891-0.83l-1.005-2.369l4.326-7.479l-11.387,15.331l-2.456-2.711l6.951-7.483l3.811-4.432l3.122-5.521l-0.256-1.616  l-5.767,5.914l-4.956,4.615l-2.341-2.386l6.563-9.072l0.023-1.509l-10.611,12.124l-6.845,6.948l-2.423-1.143l-6.277,8.876  l-6.4,8.083l-7.479,7.768l-5.761,3.785l-7.486,3.799l-8.806,8.593l-6.205,9.495l-0.107,1.845l2.6,7.756l1.313,2.561l-0.27,2.316  l-0.64,1.33l-1.521,0.082l-2.072-0.471l-2.213-1.462l-1.922-2.28l-1.603-0.307l-1.551,0.36l-1.835,1.478l72.503,98.839l1.305-2.816  l1.224-1.279l2.505-0.053l2.208-0.123l1.255-0.478l1.693-2.097l1.594-2.671l0.924-0.99l2.344-0.715l1.196-2.532l1.008-1.773  l1.417-2.038l1.613-1.762l-0.269-4.163l0.941-1.127l1.367-1.045l1.502-2.26l0.402-1.776l-0.903-4.256l-0.183-1.913l0.37-0.49  l0.707,0.558l1.502-3.445l0.766-1.779l0.655-1.79l0.397-2.803l0.764-4.626l-2.131-4.629l1.222-2.786l-1.63-11.11L190.601,109.671z"
     fill="#010101"
     id="path3906-6" /></svg>