<?xml version="1.0" encoding="UTF-8" standalone="no"?>
<svg
   xmlns:dc="http://purl.org/dc/elements/1.1/"
   xmlns:cc="http://creativecommons.org/ns#"
   xmlns:rdf="http://www.w3.org/1999/02/22-rdf-syntax-ns#"
   xmlns:svg="http://www.w3.org/2000/svg"
   xmlns="http://www.w3.org/2000/svg"
   xml:space="preserve"
   enable-background="new 0 0 99 99"
   viewBox="0 0 99 99"
   height="99px"
   width="99px"
   y="0px"
   x="0px"
   id="Layer_1"
   version="1.1"><metadata
     id="metadata5178"><rdf:RDF><cc:Work
         rdf:about=""><dc:format>image/svg+xml</dc:format><dc:type
           rdf:resource="http://purl.org/dc/dcmitype/StillImage" /><dc:title></dc:title></cc:Work></rdf:RDF></metadata><defs
     id="defs5176" /><g
     id="g5171"><g
       transform="matrix(2.7515692,0,0,2.7515692,-3780.4764,-1725.7449)"
       id="g4167"><path
         d="M1392.576,636.074l0.042,0.022h0.056    l0.059-0.004l0.056-0.015l0.071-0.016l0.1-0.056l0.047-0.045l0.017-0.02l-0.024-0.01l-0.042-0.019l-0.073-0.021h-0.056    l-0.048,0.008l-0.063,0.013l-0.054,0.025l-0.055,0.034l-0.041,0.04L1392.576,636.074z"
         fill="#17AC4F"
         id="path3940-8-9-1-5-9-7" /><path
         d="M1392.643,635.837l-0.048-0.002l-0.049-0.027    l-0.049-0.032l-0.041-0.041l-0.055-0.049l-0.059-0.098l-0.019-0.061l-0.006-0.026l0.026,0.003l0.046,0.004l0.074,0.018    l0.049,0.027l0.038,0.031l0.048,0.043l0.035,0.048l0.031,0.057l0.016,0.055L1392.643,635.837z"
         fill="#5FB746"
         id="path3940-8-2-7-7-5-0" /><path
         d="M1392.74,635.579l0.044,0.019l0.056-0.004    l0.058-0.008l0.055-0.019l0.07-0.021l0.096-0.064l0.043-0.048l0.016-0.021l-0.025-0.009l-0.043-0.016l-0.075-0.016l-0.056,0.004    l-0.048,0.011l-0.062,0.018l-0.052,0.028l-0.053,0.038l-0.038,0.043L1392.74,635.579z"
         fill="#5FB746"
         id="path3940-8-2-33-9-4" /><path
         d="M1392.758,635.351l0.047,0.009l0.054-0.016    l0.055-0.02l0.049-0.031l0.064-0.035l0.08-0.083l0.032-0.056l0.011-0.024l-0.026-0.003l-0.045-0.006l-0.077,0.001l-0.054,0.016    l-0.044,0.021l-0.056,0.031l-0.045,0.039l-0.043,0.048l-0.028,0.05L1392.758,635.351z"
         fill="#17AC4F"
         id="path3940-8-42-7-8" /><path
         d="M1392.749,635.366l-0.048-0.004l-0.048-0.029    l-0.048-0.034l-0.039-0.043l-0.052-0.051l-0.055-0.101l-0.016-0.062l-0.005-0.026l0.026,0.004l0.045,0.006l0.074,0.021l0.048,0.03    l0.037,0.032l0.046,0.045l0.033,0.049l0.029,0.058l0.014,0.056L1392.749,635.366z"
         fill="#17AC4F"
         id="path3940-8-4-2-2-8" /><path
         d="M1392.679,635.821l0.042,0.022h0.056    l0.058-0.004l0.056-0.016l0.072-0.016l0.1-0.057l0.046-0.045l0.018-0.019l-0.024-0.01l-0.042-0.019l-0.073-0.021h-0.056    l-0.048,0.007l-0.063,0.014l-0.054,0.024l-0.055,0.034l-0.041,0.04L1392.679,635.821z"
         fill="#17AC4F"
         id="path3940-8-9-0-0-1" /><path
         d="M1393.106,635.68l-0.066,0.018l-0.063,0.018    l-0.098,0.031l-0.1,0.029l-0.085,0.025l-0.031,0.011l0.015-0.079l0.022-0.011l0.04-0.023l0.011-0.007l0.044-0.023l0.027-0.01    l0.032-0.01l0.024-0.005l0.036-0.004l0.024-0.003l0.02-0.003l0.034,0.001l0.025,0.005l0.029,0.006l0.028,0.008l0.017,0.004    l0.007,0.005l0.009,0.009L1393.106,635.68z"
         fill="#BFD730"
         id="path3962-7-1-2-3" /><path
         d="M1392.318,636.38l0.086-0.106l0.086-0.134    l0.093-0.204l0.041-0.128l0.059-0.18l0.092-0.408l0.023-0.004l-0.039,0.201l-0.013,0.116l-0.044,0.156l-0.04,0.151l-0.041,0.085    l-0.071,0.177l-0.111,0.172l-0.063,0.129l-0.039,0.051L1392.318,636.38z"
         fill="#5FB746"
         id="path3936-2-8-6" /><path
         d="M1392.516,636.053l-0.047-0.004l-0.048-0.029    l-0.048-0.034l-0.039-0.043l-0.052-0.051l-0.055-0.101l-0.016-0.062l-0.005-0.026l0.026,0.004l0.045,0.006l0.073,0.021    l0.048,0.029l0.037,0.032l0.046,0.045l0.033,0.049l0.029,0.057l0.013,0.056L1392.516,636.053z"
         fill="#17AC4F"
         id="path3940-8-4-9-7-6-7" /><path
         d="M1393.003,635.932l-0.066,0.018l-0.063,0.018    l-0.098,0.031l-0.1,0.028l-0.085,0.026l-0.032,0.011l0.016-0.079l0.022-0.011l0.04-0.023l0.011-0.007l0.044-0.023l0.027-0.011    l0.032-0.009l0.024-0.005l0.036-0.004l0.024-0.003l0.02-0.003l0.034,0.002l0.025,0.005l0.029,0.007l0.028,0.008l0.017,0.005    l0.007,0.004l0.009,0.009L1393.003,635.932z"
         fill="#BFD730"
         id="path3962-7-4-7-7-89" /><path
         d="M1392.801,635.229l0.038-0.029l0.024-0.051    l0.022-0.055l0.01-0.057l0.016-0.072l-0.009-0.114l-0.021-0.061l-0.01-0.024l-0.02,0.017l-0.035,0.03l-0.05,0.057l-0.024,0.051    l-0.014,0.047l-0.014,0.063l-0.001,0.059l0.007,0.064l0.019,0.054L1392.801,635.229z"
         fill="#17AC4F"
         id="path3940-0-0-5" /><path
         d="M1392.784,635.196l-0.024-0.074l0.012-0.082    l0.014-0.106l0.022-0.083l-0.015-0.003l-0.036,0.133l-0.008,0.105l0.007,0.08L1392.784,635.196z"
         fill="#65BC46"
         id="path3938-24-8-5" /><path
         d="M1392.773,635.344l0.019,0.012l0.044,0.008    l0.021,0.002l0.018-0.003l0.017-0.005l0.038-0.015l0.047-0.027l0.04-0.033l0.04-0.035l0.033-0.019l0.025-0.035l0.023-0.036    l0.007-0.026l0.004-0.036l-0.031,0.021l-0.278,0.173l-0.055,0.037l-0.014,0.006l0.001,0.01L1392.773,635.344z"
         fill="#5FB746"
         id="path3960-10-1-56" /><path
         d="M1393.177,635.42l-0.066,0.018l-0.063,0.018    l-0.098,0.031l-0.1,0.029l-0.084,0.025l-0.032,0.011l0.016-0.079l0.022-0.011l0.04-0.023l0.011-0.007l0.044-0.023l0.027-0.01    l0.032-0.009l0.024-0.005l0.036-0.004l0.024-0.003l0.02-0.003l0.034,0.001l0.025,0.005l0.029,0.006l0.027,0.008l0.017,0.005    l0.007,0.005l0.009,0.008L1393.177,635.42z"
         fill="#BFD730"
         id="path3962-37-8-6" /><path
         d="M1392.695,635.585l-0.048-0.002    l-0.049-0.027l-0.049-0.032l-0.041-0.041l-0.054-0.049l-0.06-0.098l-0.019-0.061l-0.006-0.026l0.026,0.003l0.046,0.004    l0.074,0.017l0.049,0.027l0.038,0.031l0.048,0.043l0.035,0.048l0.031,0.057l0.016,0.055L1392.695,635.585z"
         fill="#5FB746"
         id="path3940-8-2-7-0-3-3-3" /><path
         d="M1392.778,636.855l-0.031,0.036l-0.013,0.055    l-0.01,0.058l0.003,0.058l-0.001,0.073l0.032,0.11l0.033,0.055l0.015,0.021l0.016-0.021l0.028-0.037l0.037-0.067l0.013-0.055    l0.004-0.049l0.001-0.064l-0.012-0.058l-0.021-0.061l-0.03-0.049L1392.778,636.855z"
         fill="#17AC4F"
         id="path3940-8-9-1-5-9" /><path
         d="M1392.994,636.973l0.012-0.046l0.038-0.042    l0.042-0.041l0.049-0.031l0.06-0.043l0.109-0.035l0.064-0.004h0.026l-0.009,0.025l-0.014,0.043l-0.034,0.069l-0.038,0.042    l-0.038,0.031l-0.052,0.037l-0.054,0.023l-0.062,0.018l-0.057,0.003L1392.994,636.973z"
         fill="#5FB746"
         id="path3940-8-2-7-7-5" /><path
         d="M1393.223,637.125l-0.028,0.039l-0.009,0.056    l-0.006,0.058l0.007,0.057l0.004,0.073l0.04,0.108l0.037,0.053l0.016,0.021l0.014-0.022l0.025-0.038l0.032-0.07l0.009-0.055    l0-0.049l-0.004-0.064l-0.016-0.057l-0.025-0.06l-0.033-0.047L1393.223,637.125z"
         fill="#5FB746"
         id="path3940-8-2-33-9" /><path
         d="M1393.442,637.195l-0.019,0.044l0.003,0.056    l0.007,0.058l0.019,0.055l0.02,0.071l0.062,0.097l0.047,0.044l0.021,0.016l0.009-0.025l0.016-0.043l0.017-0.075l-0.003-0.056    l-0.01-0.048l-0.018-0.062l-0.027-0.052l-0.037-0.053l-0.043-0.038L1393.442,637.195z"
         fill="#17AC4F"
         id="path3940-8-42-7" /><path
         d="M1393.429,637.182l0.014-0.045l0.04-0.04    l0.044-0.039l0.05-0.028l0.062-0.04l0.111-0.031l0.064-0.001l0.026,0.001l-0.01,0.024l-0.016,0.043l-0.037,0.067l-0.039,0.04    l-0.04,0.029l-0.054,0.035l-0.056,0.021l-0.063,0.015l-0.057,0.001L1393.429,637.182z"
         fill="#17AC4F"
         id="path3940-8-4-2-2" /><path
         d="M1393.001,637.011l-0.031,0.036l-0.013,0.055    l-0.01,0.057l0.002,0.058l-0.001,0.073l0.032,0.11l0.033,0.055l0.015,0.021l0.015-0.021l0.028-0.037l0.037-0.067l0.013-0.055    l0.004-0.049l0.001-0.064l-0.012-0.058l-0.021-0.061l-0.03-0.049L1393.001,637.011z"
         fill="#17AC4F"
         id="path3940-8-9-0-0" /><path
         d="M1393.043,637.46l-0.003-0.068l-0.003-0.066    l-0.009-0.103l-0.005-0.104l-0.006-0.088l-0.003-0.033l0.073,0.033l0.006,0.024l0.013,0.043l0.004,0.013l0.013,0.048l0.004,0.029    l0.002,0.033l0,0.025l-0.005,0.036l-0.002,0.024l-0.002,0.021l-0.009,0.033l-0.01,0.023l-0.013,0.027l-0.014,0.026l-0.008,0.015    l-0.006,0.006l-0.01,0.006L1393.043,637.46z"
         fill="#BFD730"
         id="path3962-7-1-2" /><path
         d="M1392.538,636.534l0.083,0.108l0.111,0.114    l0.178,0.136l0.116,0.069l0.162,0.098l0.377,0.181l-0.001,0.023l-0.187-0.083l-0.11-0.039l-0.142-0.078l-0.137-0.073l-0.073-0.059    l-0.157-0.11l-0.143-0.147l-0.112-0.091l-0.04-0.05L1392.538,636.534z"
         fill="#5FB746"
         id="path3936-2-8" /><path
         d="M1392.812,636.801l0.014-0.045l0.04-0.04    l0.044-0.039l0.05-0.029l0.062-0.039l0.111-0.031l0.064-0.001l0.026,0.001l-0.01,0.024l-0.016,0.043l-0.037,0.067l-0.04,0.04    l-0.039,0.029l-0.054,0.034l-0.055,0.021l-0.063,0.015l-0.057,0.001L1392.812,636.801z"
         fill="#17AC4F"
         id="path3940-8-4-9-7-6" /><path
         d="M1392.82,637.303l-0.003-0.068l-0.003-0.066    l-0.009-0.103l-0.005-0.104l-0.005-0.088l-0.003-0.033l0.073,0.033l0.005,0.024l0.013,0.043l0.005,0.013l0.013,0.048l0.004,0.029    l0.002,0.033l-0.001,0.025l-0.004,0.036l-0.003,0.024l-0.002,0.021l-0.009,0.033l-0.01,0.023l-0.013,0.027l-0.014,0.026    l-0.008,0.015l-0.006,0.006l-0.01,0.006L1392.82,637.303z"
         fill="#BFD730"
         id="path3962-7-4-7-7" /><path
         d="M1393.551,637.265l0.02,0.043l0.044,0.035    l0.048,0.033l0.054,0.022l0.066,0.032l0.114,0.017l0.064-0.006l0.026-0.005l-0.013-0.023l-0.021-0.041l-0.045-0.062l-0.044-0.035    l-0.042-0.024l-0.058-0.028l-0.057-0.014l-0.064-0.007l-0.057,0.006L1393.551,637.265z"
         fill="#17AC4F"
         id="path3940-0-0" /><path
         d="M1393.586,637.255l0.078-0.007l0.077,0.031    l0.1,0.038l0.076,0.04l0.006-0.013l-0.121-0.065l-0.1-0.031l-0.079-0.011L1393.586,637.255z"
         fill="#65BC46"
         id="path3938-24-8" /><path
         d="M1393.444,637.211l-0.016,0.016l-0.018,0.04    l-0.007,0.021l0,0.018l0.001,0.018l0.006,0.04l0.016,0.052l0.023,0.046l0.025,0.047l0.011,0.036l0.028,0.032l0.03,0.031    l0.024,0.012l0.034,0.011l-0.013-0.035l-0.106-0.31l-0.023-0.062l-0.003-0.015l-0.01-0.001L1393.444,637.211z"
         fill="#5FB746"
         id="path3960-10-1" /><path
         d="M1393.279,637.587l-0.003-0.068l-0.003-0.065    l-0.008-0.103l-0.005-0.104l-0.006-0.088l-0.003-0.033l0.073,0.033l0.006,0.024l0.013,0.044l0.005,0.012l0.013,0.049l0.004,0.029    l0.002,0.033l0,0.025l-0.004,0.036l-0.003,0.024l-0.002,0.02l-0.009,0.033l-0.01,0.023l-0.013,0.027l-0.014,0.025l-0.008,0.016    l-0.006,0.006l-0.01,0.006L1393.279,637.587z"
         fill="#BFD730"
         id="path3962-37-8" /><path
         d="M1393.227,637.081l0.012-0.046l0.038-0.042    l0.042-0.041l0.049-0.031l0.06-0.042l0.109-0.036l0.064-0.004h0.026l-0.009,0.025l-0.014,0.044l-0.034,0.068l-0.038,0.042    l-0.038,0.031l-0.052,0.037l-0.054,0.023l-0.062,0.018l-0.057,0.003L1393.227,637.081z"
         fill="#5FB746"
         id="path3940-8-2-7-0-3-3" /><path
         d="M1398.004,651.255l-0.339-0.017l-0.403-0.03l-0.484-0.03    l-0.668-0.047l-0.407-0.03l-0.287-0.017l-0.009,0.009"
         fill="none"
         id="path3793" /><path
         d="M1397.605,652.969l-0.253-0.013l-0.214-0.013l-0.437-0.026    l-0.364-0.021l-0.24-0.004l-0.381-0.008l-0.557-0.03l-0.017,0.009"
         fill="none"
         id="path3795" /><path
         d="M1395.856,652.225h-0.017    l-0.154-0.005l-0.385-0.008l-0.33-0.022l-0.257,0.005l-0.124-0.005l-0.295-0.004l-0.034-0.004"
         fill="none"
         id="path3795-7" /><path
         d="M1392.973,652.298    l-0.12,0.004h-0.111l-0.343,0.004l-0.33-0.004h-0.201h-0.248l-0.103,0.009l-0.06,0.004"
         fill="none"
         id="path3795-4" /><path
         d="M1392.919,652.433    h-0.172h-0.073l-0.343,0.004l-0.154-0.009h-0.201l-0.12,0.005h-0.163h-0.064"
         fill="none"
         id="path3795-4-0" /><path
         d="M1389.736,651.782l0.206-0.013l0.39-0.009l0.501-0.03    l0.458-0.022l0.411-0.013"
         fill="none"
         id="path3862" /><path
         d="M1391.184,653.028l-1.675,0.013l0,0"
         fill="none"
         id="path3872" /><path
         d="M1389.899,652.236l-0.69,0.017l-0.535,0.009l-0.861,0.038    l-0.368,0.022"
         fill="none"
         id="path3874" /><path
         d="M1389.406,650.998l-0.428,0.008l-0.69,0.026l-0.557,0.038    h-0.043"
         fill="none"
         id="path3876" /><path
         d="M1387.864,654.08l0.948-0.016"
         fill="none"
         id="path3878" /><path
         d="M1388.396,654.57l0.916-0.027"
         fill="none"
         id="path3880" /><path
         d="M1391.713,654.283h0.863"
         fill="none"
         id="path3882" /><path
         d="M1391.021,654.735l1.406,0.006"
         fill="none"
         id="path3884" /><path
         d="M1393.976,657.402l0.926,0.005"
         fill="none"
         id="path3886" /><path
         d="M1391.58,656.598l-1.661-0.016l0,0"
         fill="none"
         id="path3888" /><path
         d="M1393.518,656.768l0.857,0.006"
         fill="none"
         id="path3890" /><path
         d="M1392.093,635.188l0.002-0.081l-0.004-0.086    l-0.017-0.064l-0.027-0.065l-0.033-0.082l-0.096-0.11l-0.014-0.017l0.032-0.033l0.031,0.024l0.041,0.048l0.034,0.06l0.031,0.063    l0.021,0.062l0.017,0.048l0.012,0.138l-0.005,0.098L1392.093,635.188z"
         fill="#5FB746"
         id="path4206-3-5-3" /><path
         d="m 1839.1057,833.12592 a 1.7575414,0.68149561 0 0 1 -1.7576,0.68149 1.7575414,0.68149561 0 0 1 -1.7575,-0.68149 1.7575414,0.68149561 0 0 1 1.7575,-0.6815 1.7575414,0.68149561 0 0 1 1.7576,0.6815 z"
         fill="#EF3B38"
         id="path4208-8-2-98-3-8-6-9-8-6-6-2-0-2" /><path
         d="m 1839.1057,833.12592 a 1.7575414,0.68149561 0 0 1 -1.7576,0.68149 1.7575414,0.68149561 0 0 1 -1.7575,-0.68149 1.7575414,0.68149561 0 0 1 1.7575,-0.6815 1.7575414,0.68149561 0 0 1 1.7576,0.6815 z"
         fill="#EF3B38"
         id="path4208-8-2-98-3-8-6-9-8-6-3-7-4" /><path
         d="m 1839.1057,833.12592 a 1.7575414,0.68149561 0 0 1 -1.7576,0.68149 1.7575414,0.68149561 0 0 1 -1.7575,-0.68149 1.7575414,0.68149561 0 0 1 1.7575,-0.6815 1.7575414,0.68149561 0 0 1 1.7576,0.6815 z"
         fill="#EF3B38"
         id="path4208-8-2-98-3-8-6-9-8-8-6-6" /><path
         d="m 1839.1057,833.12592 a 1.7575414,0.68149561 0 0 1 -1.7576,0.68149 1.7575414,0.68149561 0 0 1 -1.7575,-0.68149 1.7575414,0.68149561 0 0 1 1.7575,-0.6815 1.7575414,0.68149561 0 0 1 1.7576,0.6815 z"
         fill="#EF3B38"
         id="path4208-8-2-98-3-8-6-9-2-7-6" /><path
         d="m 1839.1057,833.12592 a 1.7575414,0.68149561 0 0 1 -1.7576,0.68149 1.7575414,0.68149561 0 0 1 -1.7575,-0.68149 1.7575414,0.68149561 0 0 1 1.7575,-0.6815 1.7575414,0.68149561 0 0 1 1.7576,0.6815 z"
         fill="#EF3B38"
         id="path4208-8-2-98-3-8-6-6-8-6" /><path
         d="m 1839.1057,833.12592 a 1.7575414,0.68149561 0 0 1 -1.7576,0.68149 1.7575414,0.68149561 0 0 1 -1.7575,-0.68149 1.7575414,0.68149561 0 0 1 1.7575,-0.6815 1.7575414,0.68149561 0 0 1 1.7576,0.6815 z"
         fill="#EF3B38"
         id="path4208-8-2-98-3-2-3-2" /><path
         d="m 1839.1057,833.12592 a 1.7575414,0.68149561 0 0 1 -1.7576,0.68149 1.7575414,0.68149561 0 0 1 -1.7575,-0.68149 1.7575414,0.68149561 0 0 1 1.7575,-0.6815 1.7575414,0.68149561 0 0 1 1.7576,0.6815 z"
         fill="#EF3B38"
         id="path4208-8-2-98-7-6-9" /><path
         d="m 1839.1057,833.12592 a 1.7575414,0.68149561 0 0 1 -1.7576,0.68149 1.7575414,0.68149561 0 0 1 -1.7575,-0.68149 1.7575414,0.68149561 0 0 1 1.7575,-0.6815 1.7575414,0.68149561 0 0 1 1.7576,0.6815 z"
         fill="#EF3B38"
         id="path4208-8-2-9-5-4-0" /><path
         d="M1392.347,635.293l-0.096-0.065l-0.041-0.016    l-0.019-0.017l-0.027-0.01l-0.079,0.004l-0.036,0.019l-0.12,0.113l0.024,0.024l0.023-0.026l0.038-0.045l0.024-0.028l0.027-0.009    l-0.046,0.074l-0.031,0.062l-0.015,0.034l0.021-0.002l0.034-0.064l0.043-0.065l0.01-0.002l-0.004,0.1l0.019-0.005v-0.106    l0.021-0.016l0.017-0.014l0.017,0.005l-0.003,0.084h0.019l0.01,0.048l0.04,0.01l-0.002-0.053l0.024-0.003l0.016,0.062l0.04-0.035    l-0.022-0.032l-0.029-0.027l-0.019-0.012l-0.002-0.042l0.017,0.002l0.021,0.017l0.014,0.014l0.026,0.029l0.002,0.034l0.027-0.004    l0.014-0.034L1392.347,635.293z"
         fill="#9F3F30"
         id="path4204-7-4-4" /><path
         d="m 1839.1057,833.12592 a 1.7575414,0.68149561 0 0 1 -1.7576,0.68149 1.7575414,0.68149561 0 0 1 -1.7575,-0.68149 1.7575414,0.68149561 0 0 1 1.7575,-0.6815 1.7575414,0.68149561 0 0 1 1.7576,0.6815 z"
         fill="#EF3B38"
         id="path4208-8-2-8-1-9" /><path
         d="M1392.371,635.372l-0.06,0.007l-0.04,0.022    l-0.029,0.007v-0.026l0.022-0.019l0.031-0.012l0.059,0.004l0.021,0.004L1392.371,635.372z"
         fill="#F7A51F"
         id="path4253-2-9-3" /><path
         d="m 1839.1057,833.12592 a 1.7575414,0.68149561 0 0 1 -1.7576,0.68149 1.7575414,0.68149561 0 0 1 -1.7575,-0.68149 1.7575414,0.68149561 0 0 1 1.7575,-0.6815 1.7575414,0.68149561 0 0 1 1.7576,0.6815 z"
         fill="#EF3B38"
         id="path4208-8-2-98-3-8-7-5-1" /><path
         d="m 1839.1057,833.12592 a 1.7575414,0.68149561 0 0 1 -1.7576,0.68149 1.7575414,0.68149561 0 0 1 -1.7575,-0.68149 1.7575414,0.68149561 0 0 1 1.7575,-0.6815 1.7575414,0.68149561 0 0 1 1.7576,0.6815 z"
         fill="#010101"
         id="path4208-80-5-1" /><path
         d="m 1839.1057,833.12592 a 1.7575414,0.68149561 0 0 1 -1.7576,0.68149 1.7575414,0.68149561 0 0 1 -1.7575,-0.68149 1.7575414,0.68149561 0 0 1 1.7575,-0.6815 1.7575414,0.68149561 0 0 1 1.7576,0.6815 z"
         fill="#010101"
         id="path4208-8-20-7-9" /><path
         d="m 1839.1057,833.12592 a 1.7575414,0.68149561 0 0 1 -1.7576,0.68149 1.7575414,0.68149561 0 0 1 -1.7575,-0.68149 1.7575414,0.68149561 0 0 1 1.7575,-0.6815 1.7575414,0.68149561 0 0 1 1.7576,0.6815 z"
         fill="#010101"
         id="path4208-2-8-4-9" /><path
         d="m 1839.1057,833.12592 a 1.7575414,0.68149561 0 0 1 -1.7576,0.68149 1.7575414,0.68149561 0 0 1 -1.7575,-0.68149 1.7575414,0.68149561 0 0 1 1.7575,-0.6815 1.7575414,0.68149561 0 0 1 1.7576,0.6815 z"
         fill="#010101"
         id="path4208-4-9-7-5" /><path
         d="m 1839.1057,833.12592 a 1.7575414,0.68149561 0 0 1 -1.7576,0.68149 1.7575414,0.68149561 0 0 1 -1.7575,-0.68149 1.7575414,0.68149561 0 0 1 1.7575,-0.6815 1.7575414,0.68149561 0 0 1 1.7576,0.6815 z"
         fill="#010101"
         id="path4208-5-2-3-5" /><path
         d="M1392.639,635.561l-0.131-0.017v-0.029l0.117,0.012    l0.019,0.024L1392.639,635.561z"
         fill="#F7A51F"
         id="path4249-8-4-5" /><path
         d="M1392.574,635.496l-0.019-0.004v-0.046l0.017-0.01    l0.012-0.071l-0.01-0.027l-0.017-0.022l0.017-0.004l0.021,0.026l0.009,0.022l0.004,0.086v0.022l-0.019,0.007L1392.574,635.496z"
         fill="#F7A51F"
         id="path4251-2-0-6" /><path
         d="M1391.987,635.518v-0.034l0.019-0.038l0.034-0.045    l0.038-0.022h0.11l0.005,0.022l-0.084,0.016l-0.041,0.024l-0.041,0.021l-0.012,0.024L1391.987,635.518z"
         fill="#F7A51F"
         id="path4255-0-8-0" /><path
         d="M1391.917,635.713l0.048-0.021l0.034-0.008    l0.026-0.028v-0.017l-0.047,0.026l-0.041,0.019L1391.917,635.713z"
         fill="#F7A51F"
         id="path4257-5-8-5" /><path
         d="M1391.136,634.477l-0.041,0.057l-0.074,0.037    l-0.08,0.034l-0.084,0.017l-0.105,0.027l-0.169-0.008l-0.091-0.028l-0.036-0.014l0.025-0.029l0.042-0.053l0.083-0.077l0.074-0.037    l0.068-0.022l0.092-0.023l0.087-0.004l0.095,0.008l0.081,0.026L1391.136,634.477z"
         fill="#17AC4F"
         id="path3940-8-9-1-8" /><path
         d="M1390.891,634.209l0.062-0.034l0.046-0.069    l0.044-0.074l0.027-0.081l0.04-0.1l0.013-0.169l-0.016-0.093l-0.009-0.037l-0.032,0.021l-0.057,0.035l-0.086,0.072l-0.047,0.069    l-0.031,0.065l-0.035,0.088l-0.015,0.086l-0.004,0.095l0.016,0.083L1390.891,634.209z"
         fill="#5FB746"
         id="path3940-8-2-7-5" /><path
         d="    M1392.043,661.594l-0.398-0.363l-1.215-1.299l-0.637-0.744l-0.71-0.843l-0.564-0.789l-0.851-1.212l-0.753-1.186l-1.021-1.713    l-0.847-1.557l-0.56-1.09l-0.246-0.481l-1.052-2.212l-0.824-1.694l-0.576-1.383l-0.349-1.265l-0.323-1.555l-0.155-1.55    l-0.085-1.752l-0.083-1.222l-0.131-7.698l0.654,0.272l0.889,0.333l1.066,0.372l1.4,0.379l0.735,0.159    c1.045,0.106,0.556,0.099,0.299,0.055l1.275,0.116l1.589-0.043l2.366-0.462l1.105-0.428V661.594z"
         fill="#010101"
         id="path3767" /><path
         d="M1391.745,635.525l-0.002-0.039l0.012-0.031    l0.038-0.043l0.032-0.033l0.113-0.004l-0.019,0.019l-0.055,0.01l-0.027,0.024l-0.045,0.028l-0.016,0.017L1391.745,635.525z"
         fill="#F7A51F"
         id="path4259-5-1-9" /><path
         d="M1390.593,633.935l-0.045,0.054l-0.077,0.032    l-0.082,0.028l-0.085,0.011l-0.106,0.019l-0.168-0.02l-0.088-0.034l-0.035-0.017l0.027-0.028l0.046-0.049l0.088-0.071l0.076-0.032    l0.07-0.017l0.093-0.017l0.087,0.003l0.094,0.015l0.079,0.031L1390.593,633.935z"
         fill="#5FB746"
         id="path3940-8-2-6" /><path
         d="M1390.696,635.579l-0.033,0.061l-0.068,0.047    l-0.074,0.044l-0.081,0.028l-0.1,0.04l-0.169,0.014l-0.093-0.016l-0.038-0.009l0.021-0.033l0.035-0.057l0.072-0.087l0.068-0.047    l0.065-0.031l0.088-0.035l0.086-0.015l0.095-0.004l0.083,0.015L1390.696,635.579z"
         fill="#17AC4F"
         id="path3940-8-9-1-1" /><path
         d="M1391.671,635.42l0.009-0.048l0.014-0.026    l0.029-0.024l0.027-0.023l0.024-0.015l0.083,0.007l-0.022,0.019l-0.04,0.009l-0.036,0.019l-0.034,0.024l-0.031,0.031    L1391.671,635.42z"
         fill="#F7A51F"
         id="path4261-2-5-4" /><path
         d="    M1392.046,661.592l0.398-0.363l1.215-1.298l0.637-0.744l0.71-0.843l0.564-0.789l0.851-1.213l0.753-1.186l1.021-1.713l0.848-1.557    l0.56-1.089l0.246-0.482l1.052-2.212l0.824-1.694l0.576-1.383l0.349-1.264l0.322-1.555l0.155-1.55l0.084-1.752l0.083-1.222    l0.13-7.698l-0.654,0.272l-0.889,0.334l-1.066,0.372l-1.4,0.379l-0.735,0.159c-1.045,0.107-0.556,0.099-0.299,0.055l-1.275,0.116    l-1.589-0.043l-2.374-0.464l-1.099-0.427L1392.046,661.592z"
         fill="#010101"
         id="path3767-1" /><path
         d="    M1384.629,650.639l9.577,3.347l5.304-3.515l1.218-2.477l0.649-1.395l0.742-1.765l0.497-1.684l0.468-2.075l0.203-1.167    l-6.875,0.096l-4.794,0.035l-5.225-0.03l-5.383,0.016l0.218,1.734l0.421,2.06l0.914,2.582l1.446,3.145L1384.629,650.639z"
         fill="#FFFFFF"
         id="path3926" /><path
         d="M1391.633,635.597l0.033-0.017l0.014-0.01    l0.041-0.01l-0.002-0.024h-0.024l-0.041,0.012l-0.015,0.019L1391.633,635.597z"
         fill="#F7A51F"
         id="path4263-7-2-6" /><path
         d="M1390.418,633.646l-0.056,0.043l-0.082,0.015    l-0.086,0.01l-0.085-0.008l-0.108-0.004l-0.16-0.056l-0.079-0.052l-0.031-0.024l0.032-0.021l0.055-0.038l0.101-0.05l0.081-0.015    l0.072-0.002l0.094,0.004l0.085,0.021l0.089,0.035l0.07,0.048L1390.418,633.646z"
         fill="#17AC4F"
         id="path3940-8-6" /><path
         d="M1390.419,635.346l0.057-0.042l0.037-0.074    l0.034-0.079l0.016-0.084l0.026-0.105l-0.009-0.169l-0.028-0.091l-0.014-0.036l-0.03,0.025l-0.052,0.042l-0.077,0.083    l-0.037,0.074l-0.022,0.069l-0.023,0.091l-0.003,0.087l0.008,0.095l0.026,0.081L1390.419,635.346z"
         fill="#5FB746"
         id="path3940-8-2-7-6" /><path
         d="M1390.546,636.395l-0.014,0.069l-0.052,0.064    l-0.059,0.064l-0.07,0.05l-0.084,0.067l-0.157,0.062l-0.094,0.012l-0.039,0.002l0.011-0.037l0.017-0.065l0.044-0.104l0.052-0.065    l0.054-0.048l0.074-0.059l0.078-0.039l0.09-0.031l0.084-0.01L1390.546,636.395z"
         fill="#17AC4F"
         id="path3940-8-9-1-7" /><path
         d="m 2234.363,1241.5508 a 89.938461,82.646156 0 0 1 -89.9384,82.6461 89.938461,82.646156 0 0 1 -89.9385,-82.6461 89.938461,82.646156 0 0 1 89.9385,-82.6462 89.938461,82.646156 0 0 1 89.9384,82.6462 z"
         fill="#F78E1E"
         id="path3892" /><path
         d="    M1399.616,650.489l0.979-2.039l1.06-2.264l0.652-1.57l0.224-0.917l0.408-1.468l0.163-1.101l0.081-0.877l0.041-0.408l-4.649,0.102    l-2.936-0.04l-2.467,0.061l-3.12-0.041l-3.426,0.081l-4.914-0.02l-0.632,0.02l-0.041,0.245l0.082,1.285l0.183,1.141l0.285,1.183    l0.408,1.142l0.958,2.386l1.509,3.242l0.49,0.897"
         fill="none"
         id="path5483" /><path
         d="    M1390.427,651.147l0.649-1.841l-0.21-0.184l-0.064,0.026l-0.12,0.382l-0.092,0.119l-0.158,0.066l-0.132-0.04l-0.237-0.079    l-0.882-0.119l-0.171,0.119l-0.145,0.052l-0.092-0.013l-0.039-0.079l-0.04-0.066l-0.184,0.158l-0.145,0.092l-0.079-0.026h-0.131    l-0.158,0.092l-0.151,0.012l-0.021-0.143l-0.023-0.188l-0.056,0.149l-0.303,0.21l-0.131,0.039l0.052-0.171l0.105-0.197    l0.048-0.089l-0.179,0.154l-0.395,0.224l-0.118,0.066l0.013-0.145l0.264-0.346l-0.08-0.075l-0.057-0.026l-0.285,0.25l-0.145,0.105    l-0.211,0.092h-0.092l-0.04-0.039l0.526-0.434l-0.091-0.13l-0.383,0.222l-0.224,0.118l-0.263,0.079l-0.066-0.026l0.305-0.187    l0.242-0.165l-0.078-0.122l-0.446,0.19l-0.064-0.013l0.614-0.331l0.359-0.223l-0.025-0.113l0.435-0.18l0.403-0.193l0.4-0.241    l0.215-0.207l0.232-0.28l0.447-0.29l0.46-0.171l0.079,0.013l0.303,0.184l0.095,0.08l0.1,0.011l0.062-0.014l0.018-0.063v-0.092    l-0.041-0.108l-0.078-0.103l0.003-0.071l0.03-0.062l0.08-0.064l3.479,4.01l-0.131,0.028l-0.066,0.04l-0.026,0.105l-0.026,0.092    l-0.032,0.048l-0.105,0.052l-0.128,0.041l-0.051,0.03l-0.052,0.092l-0.119,0.026l-0.085,0.026l-0.099,0.04l-0.09,0.051    l-0.173-0.051l-0.078-0.005l-0.08,0.018l-0.066,0.105h-0.079l-0.171-0.079l-0.086-0.101l-0.027-0.019l-0.024,0.001l-0.125,0.092    l-0.066,0.092l-0.082,0.01l-0.122-0.01l-0.264-0.04l-0.113-0.106l-0.049-0.006l-0.164-0.056L1390.427,651.147z"
         fill="#010101"
         id="path3906_1_" /><path
         d="    M1393.836,647.861l-1.808,0.669l-0.133-0.246l0.039-0.057l0.399-0.033l0.314-0.451l0.027-0.097l-0.116,0.208l0.286-0.542    l-0.01-0.503l0.03-0.136l0.071-0.168l0.054-0.101l0.03-0.065l0.055-0.087l0.05-0.149l0.002-0.053l-0.004-0.108l0.144-0.069    c-0.024-0.079,0.258-0.25,0.129-0.265l-0.002-0.204l0.171-0.222l-0.217,0.11l-0.004,0.021l0.013-0.206l0.178-0.094l-0.289-0.012    l-0.054-0.039l0.116-0.088l-0.184,0.072l0.305-0.335l0.09-0.101l-0.144-0.019l-0.396,0.18l-0.055-0.094l-0.013-0.061l0.307-0.223    l0.326-0.224l-0.255-0.036l-0.043-0.103l0.187-0.324l-0.493,0.664l-0.106-0.117l0.301-0.324l0.165-0.192l0.135-0.239l-0.011-0.07    l-0.25,0.256l-0.215,0.2l-0.101-0.104l0.284-0.393l0.001-0.065l-0.459,0.525l-0.297,0.301l-0.105-0.049l-0.272,0.384l-0.277,0.35    l-0.324,0.336l-0.25,0.164l-0.324,0.165l-0.381,0.372l-0.269,0.411l-0.005,0.08l0.113,0.336l0.057,0.111l-0.012,0.1l-0.028,0.057    l-0.066,0.004l-0.09-0.021l-0.096-0.063l-0.083-0.099l-0.07-0.013l-0.067,0.016l-0.08,0.064l3.14,4.281l0.057-0.122l0.053-0.055    l0.109-0.003l0.096-0.005l0.054-0.021l0.073-0.091l0.069-0.116l0.04-0.043l0.101-0.031l0.052-0.11l0.044-0.077l0.061-0.088    l0.07-0.077l-0.012-0.18l0.041-0.049l0.059-0.045l0.065-0.098l0.018-0.077l-0.039-0.184l-0.008-0.083l0.016-0.021l0.031,0.024    l0.065-0.149l0.033-0.077l0.028-0.078l0.017-0.121l0.033-0.2l-0.092-0.2l0.053-0.121l-0.07-0.481L1393.836,647.861z"
         fill="#010101"
         id="path3906-6_1_" /><path
         d="M1390.44,633.659l0.06-0.036l0.043-0.071    l0.041-0.076l0.024-0.082l0.035-0.102l0.006-0.169l-0.02-0.093l-0.011-0.037l-0.032,0.022l-0.056,0.038l-0.083,0.076l-0.043,0.071    l-0.028,0.067l-0.031,0.089l-0.011,0.087l0.001,0.095l0.019,0.083L1390.44,633.659z"
         fill="#17AC4F"
         id="path3940-8-4-0" /><path
         d="M1390.213,636.252l0.042-0.056l0.014-0.082    l0.009-0.086l-0.009-0.085l-0.005-0.108l-0.057-0.159l-0.053-0.078l-0.024-0.031l-0.021,0.033l-0.038,0.055l-0.049,0.102    l-0.014,0.082l-0.001,0.072l0.005,0.094l0.022,0.084l0.036,0.089l0.048,0.07L1390.213,636.252z"
         fill="#5FB746"
         id="path3940-8-2-7-8" /><path
         d="M1390.087,635.112l-0.038,0.059l-0.072,0.042    l-0.077,0.038l-0.083,0.022l-0.103,0.033l-0.169,0.002l-0.092-0.023l-0.037-0.012l0.023-0.031l0.039-0.055l0.078-0.082    l0.072-0.042l0.067-0.026l0.09-0.029l0.087-0.009l0.095,0.003l0.082,0.021L1390.087,635.112z"
         fill="#5FB746"
         id="path3940-8-2-3" /><path
         d="M1389.829,636.124l-0.019,0.067l-0.057,0.06    l-0.063,0.06l-0.073,0.045l-0.089,0.061l-0.161,0.051l-0.095,0.005l-0.039-0.001l0.013-0.036l0.022-0.064l0.051-0.1l0.057-0.061    l0.057-0.044l0.078-0.054l0.081-0.033l0.092-0.025l0.085-0.004L1389.829,636.124z"
         fill="#5FB746"
         id="path3940-8-2-5" /><path
         d="    M1381.244,639.908l-0.203-0.989l-0.076-1.319l-0.127-2.612v-3.805l-0.039-1.009l0.876,0.359l1.176,0.463l1.46,0.444l1.72,0.336    l1.965,0.048l1.676-0.184l1.629-0.396l0.679-0.387l1.347,0.522l1.854,0.396l2.272,0.039l1.62-0.175l1.695-0.49l1.925-0.685    l0.609-0.299l-0.119,3.675l-0.046,2.998l-0.127,2.948l-2.081,0.045L1381.244,639.908z"
         fill="#5E1617"
         id="path3928" /><path
         d="M1391.859,636.177l0.138-0.368l0.061-0.196    l0.103-0.209l0.183-0.223l0.138-0.118l0.096-0.05l-0.138,0.055l-0.196,0.114l-0.177,0.204l-0.1,0.186l-0.058,0.127l-0.052,0.132    V636.177z"
         fill="#3E2015"
         id="path5485-7-9" /><path
         d="M1392.192,636.954l-0.202-0.386l-0.089-0.205    l-0.15-0.22l-0.268-0.234l-0.202-0.124l-0.141-0.052l0.202,0.057l0.287,0.119l0.258,0.215l0.146,0.195l0.085,0.134l0.075,0.138    V636.954z"
         fill="#3E2015"
         id="path5485-7-5" /><path
         d="M1389.876,634.848l-0.05,0.05l-0.079,0.025    l-0.084,0.021l-0.085,0.003l-0.107,0.01l-0.166-0.034l-0.085-0.042l-0.033-0.02l0.029-0.025l0.05-0.045l0.094-0.063l0.079-0.025    l0.071-0.011l0.094-0.009l0.087,0.01l0.093,0.023l0.076,0.038L1389.876,634.848z"
         fill="#17AC4F"
         id="path3940-8-8" /><path
         d="M1390.834,634.213l-0.041,0.057l-0.074,0.037    l-0.08,0.034l-0.084,0.016l-0.105,0.027l-0.169-0.008l-0.09-0.028l-0.036-0.014l0.025-0.03l0.042-0.053l0.083-0.076l0.074-0.037    l0.068-0.022l0.092-0.023l0.087-0.004l0.095,0.008l0.081,0.026L1390.834,634.213z"
         fill="#17AC4F"
         id="path3940-8-9-7" /><path
         d="M1389.9,634.859l0.055-0.044l0.034-0.076    l0.03-0.081l0.013-0.084l0.022-0.106l-0.016-0.168l-0.032-0.089l-0.016-0.035l-0.028,0.026l-0.051,0.045l-0.073,0.086    l-0.034,0.076l-0.019,0.07l-0.019,0.092l0,0.087l0.013,0.094l0.03,0.079L1389.9,634.859z"
         fill="#17AC4F"
         id="path3940-8-4-3" /><path
         d="M1389.55,635.933l-0.033,0.062l-0.068,0.047    l-0.074,0.045l-0.081,0.028l-0.1,0.04l-0.168,0.015l-0.094-0.016l-0.037-0.009l0.021-0.033l0.035-0.058l0.071-0.087l0.068-0.047    l0.065-0.031l0.087-0.035l0.086-0.015l0.095-0.005l0.084,0.015L1389.55,635.933z"
         fill="#17AC4F"
         id="path3940-8-85" /><path
         d="M1390.935,637.164l0.012,0.069l-0.024,0.08    l-0.031,0.081l-0.046,0.072l-0.053,0.094l-0.123,0.116l-0.083,0.046l-0.035,0.016l-0.004-0.038l-0.008-0.067l0.002-0.112    l0.024-0.08l0.032-0.065l0.047-0.082l0.058-0.065l0.072-0.063l0.075-0.04L1390.935,637.164z"
         fill="#17AC4F"
         id="path3940-8-9-1-5" /><path
         d="M1389.576,635.936l0.04-0.058l0.01-0.082    l0.006-0.086l-0.012-0.084l-0.01-0.108l-0.064-0.156l-0.057-0.076l-0.025-0.029l-0.019,0.033l-0.035,0.057l-0.045,0.103    l-0.011,0.082l0.002,0.072l0.009,0.094l0.026,0.083l0.039,0.087l0.051,0.067L1389.576,635.936z"
         fill="#17AC4F"
         id="path3940-8-4-8" /><path
         d="M1390.362,635.357l-0.034,0.062l-0.068,0.047    l-0.074,0.044l-0.081,0.027l-0.1,0.04l-0.169,0.014l-0.093-0.016l-0.037-0.01l0.021-0.032l0.035-0.057l0.072-0.087l0.068-0.047    l0.065-0.031l0.088-0.035l0.086-0.015l0.095-0.004l0.083,0.015L1390.362,635.357z"
         fill="#17AC4F"
         id="path3940-8-9-2" /><path
         d="M1390.178,634.309l0.098-0.019l0.095-0.018    l0.149-0.024l0.151-0.029l0.128-0.023l0.049-0.007l-0.073-0.094l-0.036,0l-0.067-0.004l-0.02-0.002l-0.073-0.001l-0.043,0.004    l-0.048,0.009l-0.036,0.01l-0.05,0.019l-0.033,0.012l-0.029,0.009l-0.044,0.025l-0.03,0.023l-0.034,0.028l-0.031,0.028    l-0.019,0.017l-0.006,0.011l-0.005,0.017L1390.178,634.309z"
         fill="#BFD730"
         id="path3962-7-2" /><path
         d="M1390.573,637.156l0.018-0.068l-0.017-0.081    l-0.023-0.083l-0.04-0.076l-0.045-0.098l-0.112-0.127l-0.079-0.053l-0.033-0.019l-0.007,0.038l-0.014,0.066l-0.008,0.112    l0.017,0.081l0.026,0.067l0.039,0.086l0.052,0.07l0.066,0.068l0.071,0.047L1390.573,637.156z"
         fill="#5FB746"
         id="path3940-8-2-7-7" /><path
         d="M1390.162,636.278l-0.014,0.069l-0.052,0.064    l-0.058,0.064l-0.07,0.05l-0.084,0.067l-0.157,0.062l-0.094,0.011l-0.038,0.002l0.011-0.037l0.017-0.065l0.044-0.104l0.052-0.065    l0.053-0.048l0.074-0.059l0.078-0.039l0.09-0.031l0.084-0.01L1390.162,636.278z"
         fill="#17AC4F"
         id="path3940-8-9-73" /><path
         d="M1389.724,635.537l0.095-0.032l0.092-0.031    l0.145-0.043l0.146-0.048l0.124-0.039l0.048-0.013l-0.084-0.083l-0.036,0.005l-0.067,0.005l-0.02,0l-0.073,0.009l-0.042,0.01    l-0.047,0.015l-0.034,0.014l-0.047,0.026l-0.032,0.016l-0.027,0.013l-0.04,0.031l-0.027,0.027l-0.03,0.032l-0.027,0.032    l-0.017,0.02l-0.005,0.011l-0.003,0.018L1389.724,635.537z"
         fill="#BFD730"
         id="path3962-7-8" /><path
         d="m 1839.1057,833.12592 a 1.7575414,0.68149561 0 0 1 -1.7576,0.68149 1.7575414,0.68149561 0 0 1 -1.7575,-0.68149 1.7575414,0.68149561 0 0 1 1.7575,-0.6815 1.7575414,0.68149561 0 0 1 1.7576,0.6815 z"
         fill="#EF3B38"
         id="path4208-8-2-98-3-8-6-9-8-6-6" /><path
         d="M1390.168,637.18l0.008,0.07l-0.03,0.077    l-0.036,0.079l-0.051,0.068l-0.06,0.09l-0.131,0.108l-0.086,0.04l-0.036,0.013l-0.001-0.038l-0.004-0.067l0.01-0.112l0.03-0.077    l0.036-0.063l0.052-0.078l0.062-0.061l0.076-0.057l0.077-0.035L1390.168,637.18z"
         fill="#5FB746"
         id="path3940-8-2-33" /><path
         d="M1389.604,636.636l0.082-0.058l0.079-0.056    l0.127-0.083l0.126-0.088l0.107-0.073l0.042-0.026l-0.105-0.056l-0.033,0.015l-0.063,0.024l-0.019,0.006l-0.067,0.029    l-0.037,0.021l-0.04,0.028l-0.029,0.023l-0.038,0.038l-0.025,0.025l-0.022,0.021l-0.03,0.04l-0.018,0.033l-0.02,0.04l-0.017,0.038    l-0.011,0.024l-0.001,0.012l0.002,0.018L1389.604,636.636z"
         fill="#BFD730"
         id="path3962-7-3" /><path
         d="M1391.264,635.739l-0.192-0.057l-0.216-0.092    l-0.282-0.172l-0.156-0.122l-0.221-0.171l-0.449-0.421l-0.031,0.014l0.213,0.213l0.112,0.13l0.183,0.153l0.173,0.151l0.12,0.069    l0.234,0.158l0.277,0.119l0.184,0.105l0.09,0.029L1391.264,635.739z"
         fill="#5FB746"
         id="path3936-6" /><path
         d="M1391.678,634.709l-0.183-0.082l-0.202-0.119    l-0.257-0.207l-0.139-0.141l-0.198-0.198l-0.39-0.476l-0.033,0.01l0.184,0.238l0.094,0.144l0.161,0.176l0.152,0.171l0.11,0.084    l0.212,0.187l0.259,0.153l0.169,0.128l0.085,0.04L1391.678,634.709z"
         fill="#5FB746"
         id="path3936-7" /><path
         d="M1392.153,637.633l-0.202-0.387l-0.089-0.205    l-0.15-0.22l-0.268-0.234l-0.202-0.124l-0.141-0.053l0.202,0.057l0.287,0.119l0.258,0.214l0.146,0.196l0.085,0.133l0.075,0.138    V637.633z"
         fill="#3E2015"
         id="path5485-7" /><path
         d="M1391.136,636.384l-0.201,0l-0.233-0.025l-0.32-0.083    l-0.185-0.072l-0.262-0.1l-0.552-0.274l-0.026,0.022l0.266,0.142l0.145,0.092l0.219,0.094l0.209,0.094l0.135,0.032l0.27,0.083    l0.299,0.033l0.207,0.048l0.094,0.002L1391.136,636.384z"
         fill="#5FB746"
         id="path3936-1" /><path
         d="M1390.752,635.505l0.055-0.044l0.034-0.075    l0.03-0.081l0.013-0.084l0.022-0.106l-0.016-0.168l-0.032-0.089l-0.016-0.035l-0.028,0.026l-0.05,0.045l-0.073,0.086l-0.034,0.076    l-0.019,0.07l-0.019,0.092l0.001,0.087l0.013,0.094l0.03,0.079L1390.752,635.505z"
         fill="#17AC4F"
         id="path3940-8-4-9-0" /><path
         d="m 1839.1057,833.12592 a 1.7575414,0.68149561 0 0 1 -1.7576,0.68149 1.7575414,0.68149561 0 0 1 -1.7575,-0.68149 1.7575414,0.68149561 0 0 1 1.7575,-0.6815 1.7575414,0.68149561 0 0 1 1.7576,0.6815 z"
         fill="#EF3B38"
         id="path4208-8-2-98-3-8-6-9-8-6" /><path
         d="M1390.578,636.308l0.04-0.057l0.01-0.082    l0.005-0.086l-0.012-0.085l-0.01-0.107l-0.064-0.157l-0.057-0.076l-0.025-0.029l-0.019,0.033l-0.035,0.057l-0.045,0.103    l-0.011,0.082l0.002,0.072l0.008,0.094l0.026,0.083l0.04,0.087l0.051,0.067L1390.578,636.308z"
         fill="#17AC4F"
         id="path3940-8-4-9-08" /><path
         d="M1390.058,635.76l0.095-0.032l0.092-0.031    l0.145-0.043l0.146-0.048l0.124-0.039l0.048-0.013l-0.084-0.084l-0.036,0.005l-0.067,0.005l-0.02,0.001l-0.073,0.008l-0.042,0.01    l-0.047,0.015l-0.034,0.014l-0.047,0.025l-0.032,0.016l-0.027,0.013l-0.04,0.03l-0.027,0.027l-0.03,0.032l-0.027,0.032    l-0.017,0.02l-0.005,0.012l-0.003,0.018L1390.058,635.76z"
         fill="#BFD730"
         id="path3962-7-4-1" /><path
         d="M1391.201,634.411l0.06-0.036l0.043-0.071    l0.041-0.076l0.024-0.082l0.035-0.102l0.006-0.169l-0.02-0.093l-0.011-0.037l-0.032,0.022l-0.056,0.038l-0.083,0.076l-0.043,0.071    l-0.028,0.067l-0.031,0.089l-0.011,0.086l0,0.095l0.019,0.083L1391.201,634.411z"
         fill="#17AC4F"
         id="path3940-8-4-9-2" /><path
         d="M1389.722,634.736l-0.07-0.004l-0.071-0.042    l-0.072-0.049l-0.059-0.062l-0.079-0.074l-0.084-0.147l-0.025-0.092l-0.008-0.038l0.038,0.005l0.067,0.007l0.109,0.028    l0.071,0.042l0.056,0.046l0.069,0.065l0.05,0.072l0.044,0.084l0.022,0.082L1389.722,634.736z"
         fill="#17AC4F"
         id="path3940-2" /><path
         d="m 1839.1057,833.12592 a 1.7575414,0.68149561 0 0 1 -1.7576,0.68149 1.7575414,0.68149561 0 0 1 -1.7575,-0.68149 1.7575414,0.68149561 0 0 1 1.7575,-0.6815 1.7575414,0.68149561 0 0 1 1.7576,0.6815 z"
         fill="#EF3B38"
         id="path4208-8-2-98-3-8-6-9-8" /><path
         d="M1389.717,634.682l-0.032-0.11l-0.082-0.09    l-0.106-0.117l-0.095-0.083l0.015-0.017l0.154,0.132l0.096,0.121l0.057,0.103L1389.717,634.682z"
         fill="#65BC46"
         id="path3938-6" /><path
         d="M1390.48,634.573l0.099-0.019l0.095-0.018    l0.15-0.024l0.151-0.029l0.128-0.023l0.049-0.007l-0.073-0.094l-0.036,0l-0.067-0.004l-0.02-0.002l-0.073-0.001l-0.043,0.004    l-0.048,0.009l-0.036,0.009l-0.05,0.019l-0.034,0.012l-0.028,0.009l-0.044,0.025l-0.03,0.023l-0.034,0.028l-0.031,0.028    l-0.019,0.017l-0.006,0.011l-0.005,0.017L1390.48,634.573z"
         fill="#BFD730"
         id="path3962-7-4-6" /><path
         d="M1389.852,634.853l-0.013,0.03l-0.047,0.046    l-0.024,0.02l-0.025,0.011l-0.025,0.008l-0.058,0.013l-0.08,0.006l-0.075-0.007l-0.078-0.01l-0.056,0.004l-0.059-0.022    l-0.058-0.025l-0.03-0.026l-0.034-0.041l0.055,0l0.482-0.019l0.098-0.002l0.022-0.004l0.007,0.013L1389.852,634.853z"
         fill="#5FB746"
         id="path3960-0" /><path
         d="m 1839.1057,833.12592 a 1.7575414,0.68149561 0 0 1 -1.7576,0.68149 1.7575414,0.68149561 0 0 1 -1.7575,-0.68149 1.7575414,0.68149561 0 0 1 1.7575,-0.6815 1.7575414,0.68149561 0 0 1 1.7576,0.6815 z"
         fill="#EF3B38"
         id="path4208-8-2-98-3-8-6-9" /><path
         d="M1390.28,633.514l-0.069-0.013l-0.065-0.051    l-0.065-0.057l-0.051-0.069l-0.068-0.083l-0.064-0.156l-0.013-0.094l-0.002-0.039l0.037,0.01l0.066,0.016l0.104,0.042l0.065,0.051    l0.049,0.053l0.06,0.073l0.04,0.077l0.033,0.089l0.011,0.084L1390.28,633.514z"
         fill="#17AC4F"
         id="path3940-4" /><path
         d="M1389.838,637.107l-0.008,0.07l-0.046,0.069    l-0.052,0.069l-0.065,0.056l-0.078,0.075l-0.151,0.077l-0.093,0.02l-0.038,0.006l0.007-0.038l0.011-0.067l0.034-0.107l0.046-0.069    l0.049-0.053l0.068-0.066l0.074-0.046l0.086-0.04l0.083-0.017L1389.838,637.107z"
         fill="#17AC4F"
         id="path3940-8-42" /><path
         d="M1389.987,636.752l0.082-0.058l0.079-0.056    l0.126-0.083l0.126-0.088l0.107-0.073l0.042-0.026l-0.105-0.055l-0.033,0.015l-0.063,0.024l-0.019,0.006l-0.068,0.029    l-0.037,0.021l-0.041,0.028l-0.028,0.023l-0.038,0.038l-0.026,0.024l-0.022,0.02l-0.03,0.04l-0.018,0.033l-0.02,0.04l-0.017,0.039    l-0.01,0.024l-0.001,0.012l0.002,0.018L1389.987,636.752z"
         fill="#BFD730"
         id="path3962-7-4-10" /><path
         d="M1389.424,635.28l0.095-0.032l0.092-0.031l0.145-0.043    l0.146-0.048l0.124-0.039l0.048-0.013l-0.084-0.084l-0.036,0.005l-0.067,0.005l-0.02,0l-0.073,0.009l-0.042,0.01l-0.047,0.015    l-0.034,0.014l-0.047,0.025l-0.032,0.016l-0.027,0.013l-0.04,0.03l-0.027,0.027l-0.03,0.032l-0.027,0.032l-0.017,0.02    l-0.005,0.012l-0.003,0.018L1389.424,635.28z"
         fill="#BFD730"
         id="path3962-5" /><path
         d="m 1839.1057,833.12592 a 1.7575414,0.68149561 0 0 1 -1.7576,0.68149 1.7575414,0.68149561 0 0 1 -1.7575,-0.68149 1.7575414,0.68149561 0 0 1 1.7575,-0.6815 1.7575414,0.68149561 0 0 1 1.7576,0.6815 z"
         fill="#EF3B38"
         id="path4208-8-2-98-3-8-6" /><path
         d="M1390.282,633.46l-0.018-0.114l-0.07-0.1l-0.089-0.13    l-0.083-0.094l0.017-0.014l0.135,0.151l0.079,0.132l0.043,0.11L1390.282,633.46z"
         fill="#65BC46"
         id="path3938-7" /><path
         d="M1390.146,635.083l0.057-0.041l0.037-0.074    l0.034-0.079l0.016-0.084l0.026-0.105l-0.008-0.169l-0.028-0.091l-0.014-0.036l-0.029,0.025l-0.052,0.042l-0.076,0.083    l-0.037,0.074l-0.022,0.069l-0.023,0.092l-0.003,0.087l0.009,0.095l0.026,0.081L1390.146,635.083z"
         fill="#5FB746"
         id="path3940-8-2-7-0-4" /><path
         d="m 1839.1057,833.12592 a 1.7575414,0.68149561 0 0 1 -1.7576,0.68149 1.7575414,0.68149561 0 0 1 -1.7575,-0.68149 1.7575414,0.68149561 0 0 1 1.7575,-0.6815 1.7575414,0.68149561 0 0 1 1.7576,0.6815 z"
         fill="#EF3B38"
         id="path4208-8-2-98-3" /><path
         d="M1390.393,633.648l-0.017,0.028l-0.052,0.04    l-0.027,0.016l-0.026,0.007l-0.026,0.004l-0.06,0.006l-0.08-0.004l-0.073-0.016l-0.076-0.02l-0.056-0.003l-0.056-0.029    l-0.054-0.032l-0.026-0.03l-0.029-0.045l0.054,0.007l0.481,0.044l0.097,0.011l0.022-0.002l0.005,0.013L1390.393,633.648z"
         fill="#5FB746"
         id="path3960-1" /><path
         d="m 1839.1057,833.12592 a 1.7575414,0.68149561 0 0 1 -1.7576,0.68149 1.7575414,0.68149561 0 0 1 -1.7575,-0.68149 1.7575414,0.68149561 0 0 1 1.7575,-0.6815 1.7575414,0.68149561 0 0 1 1.7576,0.6815 z"
         fill="#EF3B38"
         id="path4208-8-2-98" /><path
         d="M1389.913,634.015l0.099-0.02l0.095-0.018l0.149-0.023    l0.151-0.029l0.128-0.023l0.049-0.007l-0.073-0.094l-0.036,0l-0.067-0.004l-0.02-0.002l-0.073-0.001l-0.043,0.004l-0.048,0.009    l-0.036,0.01l-0.05,0.019l-0.033,0.012l-0.029,0.009l-0.044,0.025l-0.03,0.023l-0.034,0.028l-0.031,0.028l-0.019,0.017    l-0.007,0.011l-0.005,0.017L1389.913,634.015z"
         fill="#BFD730"
         id="path3962-3" /><path
         d="m 1839.1057,833.12592 a 1.7575414,0.68149561 0 0 1 -1.7576,0.68149 1.7575414,0.68149561 0 0 1 -1.7575,-0.68149 1.7575414,0.68149561 0 0 1 1.7575,-0.6815 1.7575414,0.68149561 0 0 1 1.7576,0.6815 z"
         fill="#EF3B38"
         id="path4208-8-2-9" /><path
         d="M1390.656,633.914l0.062-0.034l0.046-0.069    l0.044-0.075l0.027-0.081l0.04-0.1l0.013-0.169l-0.016-0.093l-0.009-0.037l-0.032,0.021l-0.057,0.035l-0.086,0.072l-0.047,0.069    l-0.031,0.065l-0.035,0.088l-0.015,0.086l-0.004,0.095l0.016,0.083L1390.656,633.914z"
         fill="#5FB746"
         id="path3940-8-2-7-0-2" /><path
         d="M1391.347,633.867l-0.068,0.018l-0.081-0.018    l-0.083-0.024l-0.075-0.04l-0.098-0.046l-0.126-0.113l-0.052-0.079l-0.019-0.034l0.038-0.007l0.066-0.014l0.112-0.007l0.081,0.018    l0.067,0.026l0.085,0.04l0.07,0.053l0.068,0.067l0.046,0.071L1391.347,633.867z"
         fill="#17AC4F"
         id="path3940-8-9-1" /><path
         d="M1391.327,633.505l0.069,0.013l0.08-0.024    l0.081-0.03l0.072-0.045l0.094-0.052l0.117-0.122l0.047-0.083l0.017-0.035l-0.038-0.004l-0.067-0.009l-0.113,0.001l-0.079,0.024    l-0.065,0.031l-0.083,0.046l-0.066,0.057l-0.063,0.071l-0.041,0.074L1391.327,633.505z"
         fill="#5FB746"
         id="path3940-8-2-7" /><path
         d="M1391.271,633.103l-0.069,0.013l-0.079-0.024    l-0.081-0.03l-0.072-0.045l-0.094-0.052l-0.117-0.122l-0.047-0.083l-0.016-0.035l0.038-0.004l0.067-0.009l0.113,0.001l0.079,0.024    l0.065,0.031l0.083,0.046l0.066,0.057l0.063,0.071l0.041,0.074L1391.271,633.103z"
         fill="#5FB746"
         id="path3940-8-2" /><path
         d="M1391.318,632.769l-0.07-0.002l-0.073-0.04    l-0.073-0.047l-0.061-0.06l-0.081-0.072l-0.088-0.144l-0.028-0.091l-0.009-0.038l0.038,0.004l0.067,0.005l0.11,0.025l0.072,0.04    l0.057,0.044l0.071,0.063l0.052,0.07l0.047,0.083l0.024,0.081L1391.318,632.769z"
         fill="#17AC4F"
         id="path3940-8" /><path
         d="M1391.327,632.794l0.07,0.01l0.078-0.027l0.08-0.033    l0.07-0.049l0.092-0.056l0.112-0.127l0.043-0.084l0.015-0.036l-0.039-0.002l-0.067-0.006l-0.113,0.006l-0.078,0.027l-0.064,0.034    l-0.08,0.049l-0.063,0.06l-0.06,0.074l-0.038,0.076L1391.327,632.794z"
         fill="#17AC4F"
         id="path3940-8-4" /><path
         d="M1391.281,633.471l-0.068,0.018l-0.081-0.018    l-0.083-0.024l-0.075-0.04l-0.098-0.046l-0.125-0.113l-0.052-0.079l-0.019-0.034l0.038-0.007l0.066-0.014l0.112-0.007l0.081,0.018    l0.067,0.027l0.085,0.04l0.07,0.052l0.068,0.067l0.046,0.071L1391.281,633.471z"
         fill="#17AC4F"
         id="path3940-8-9" /><path
         d="M1390.712,633.129l0.088,0.047l0.085,0.046l0.131,0.076    l0.135,0.073l0.113,0.064l0.042,0.026l0.003-0.119l-0.028-0.023l-0.05-0.045l-0.014-0.014l-0.056-0.048l-0.036-0.024l-0.043-0.024    l-0.033-0.015l-0.051-0.017l-0.033-0.012l-0.028-0.011l-0.05-0.009l-0.038-0.001h-0.044l-0.042,0.002l-0.026,0.001l-0.012,0.004    l-0.015,0.01L1390.712,633.129z"
         fill="#BFD730"
         id="path3962-7" /><path
         d="M1391.619,634.39l-0.09-0.18l-0.081-0.22l-0.067-0.323    l-0.018-0.198l-0.027-0.279v-0.616l-0.031-0.013l-0.009,0.301l-0.018,0.171l0.013,0.238l0.009,0.229l0.031,0.135l0.045,0.278    l0.104,0.283l0.049,0.207l0.041,0.085L1391.619,634.39z"
         fill="#5FB746"
         id="path3936" /><path
         d="M1391.439,633.857l0.069,0.01l0.078-0.027    l0.08-0.033l0.07-0.048l0.092-0.057l0.112-0.127l0.043-0.084l0.015-0.036l-0.039-0.003l-0.067-0.006l-0.112,0.006l-0.078,0.027    l-0.063,0.034l-0.08,0.049l-0.063,0.06l-0.06,0.074l-0.038,0.076L1391.439,633.857z"
         fill="#17AC4F"
         id="path3940-8-4-9" /><path
         d="M1390.778,633.525l0.088,0.048l0.085,0.046    l0.131,0.077l0.135,0.073l0.113,0.064l0.042,0.026l0.003-0.119l-0.028-0.023l-0.05-0.045l-0.014-0.014l-0.056-0.047l-0.036-0.024    l-0.043-0.024l-0.033-0.015l-0.051-0.017l-0.033-0.012l-0.028-0.011l-0.05-0.009l-0.038-0.001h-0.044l-0.042,0.002l-0.026,0.001    l-0.012,0.004l-0.015,0.01L1390.778,633.525z"
         fill="#BFD730"
         id="path3962-7-4" /><path
         d="M1389.37,635.869l-0.068,0.016l-0.081-0.02    l-0.082-0.026l-0.075-0.042l-0.096-0.048l-0.123-0.116l-0.051-0.081l-0.018-0.034l0.038-0.006l0.066-0.013l0.113-0.004l0.081,0.02    l0.066,0.028l0.084,0.042l0.068,0.054l0.067,0.068l0.044,0.072L1389.37,635.869z"
         fill="#17AC4F"
         id="path3940-9" /><path
         d="M1389.863,637.1l0.016-0.068l-0.021-0.08    l-0.027-0.082l-0.043-0.074l-0.049-0.096l-0.118-0.121l-0.081-0.049l-0.034-0.018l-0.006,0.038l-0.011,0.066l-0.003,0.112    l0.021,0.08l0.029,0.066l0.043,0.084l0.055,0.068l0.069,0.066l0.073,0.043L1389.863,637.1z"
         fill="#17AC4F"
         id="path3940-8-4-2" /><path
         d="    M1391.122,640.003l1.226-0.006l0.033-0.195l0.046-0.263l0.054-0.355v-0.27l0.008-0.232l-0.07-0.911l-0.07-0.417l-0.015-0.417    l0.1-0.278l0.185-0.255l0.209-0.193l0.147-0.101l0.178-0.085l0.1-0.046l-0.147,0.031l-0.24,0.093l-0.17,0.1l-0.17,0.139    l-0.186,0.209l-0.085,0.162l-0.008-0.324l-0.031-0.193v-0.139l-0.046-0.317l-0.193-0.587l-0.209-0.51l-0.147-0.255l-0.077,0.077    l0.054,0.24l0.1,0.27l0.062,0.356l0.062,0.734l0.039,0.641l0.031,0.448l-0.031,0.556l-0.039,0.427l-0.084,0.402l-0.182,0.622    l-0.212,0.499l-0.126,0.185l-0.129,0.175L1391.122,640.003z"
         fill="#3E2015"
         id="path3930" /><path
         d="M1390.535,637.199l0.012,0.069l-0.024,0.08    l-0.031,0.081l-0.046,0.072l-0.053,0.094l-0.123,0.116l-0.083,0.046l-0.035,0.016l-0.004-0.038l-0.009-0.067l0.002-0.112    l0.024-0.079l0.032-0.065l0.047-0.082l0.058-0.065l0.072-0.063l0.075-0.04L1390.535,637.199z"
         fill="#17AC4F"
         id="path3940-8-9-0" /><path
         d="M1391.213,639.965l0.176-0.114l0.133-0.143l0.105-0.181    l0.057-0.176l0.114-0.291l0.072-0.314l0.043-0.534l0.019-0.205v-0.314l-0.062,0.457l-0.038,0.329l-0.091,0.362l-0.1,0.334    l-0.119,0.329l-0.124,0.224l-0.143,0.152L1391.213,639.965z"
         fill="#865735"
         id="path3932" /><path
         d="M1389.35,635.819l-0.063-0.096l-0.105-0.062    l-0.135-0.082l-0.115-0.052l0.01-0.02l0.185,0.082l0.127,0.088l0.085,0.082L1389.35,635.819z"
         fill="#65BC46"
         id="path3938-2" /><path
         d="M1390.15,637.739l0.054-0.084l0.053-0.081    l0.086-0.124l0.084-0.128l0.072-0.108l0.029-0.04l-0.118-0.013l-0.025,0.026l-0.049,0.046l-0.015,0.013l-0.052,0.052l-0.026,0.034    l-0.027,0.041l-0.018,0.032l-0.021,0.049l-0.014,0.033l-0.013,0.027l-0.013,0.049l-0.004,0.037l-0.004,0.044l-0.001,0.042    l-0.001,0.026l0.003,0.012l0.009,0.016L1390.15,637.739z"
         fill="#BFD730"
         id="path3962-7-1" /><path
         d="M1390.425,636.668l-0.002-0.081l0.003-0.086    l0.017-0.064l0.027-0.065l0.033-0.082l0.096-0.11l0.014-0.017l-0.033-0.033l-0.031,0.024l-0.041,0.048l-0.034,0.06l-0.031,0.063    l-0.021,0.062l-0.017,0.048l-0.012,0.138l0.005,0.098L1390.425,636.668z"
         fill="#5FB746"
         id="path4206-3" /><path
         d="M1389.529,635.944l-0.004,0.033l-0.031,0.058    l-0.018,0.026l-0.021,0.017l-0.022,0.015l-0.052,0.029l-0.075,0.029l-0.074,0.016l-0.077,0.013l-0.052,0.02l-0.063-0.004    l-0.063-0.007l-0.036-0.017l-0.044-0.029l0.052-0.016l0.456-0.158l0.093-0.03l0.02-0.011l0.011,0.01V635.944z"
         fill="#5FB746"
         id="path3960-4" /><path
         d="M1391.478,636.934l-0.186,0.076l-0.226,0.063    l-0.328,0.042l-0.198,0.003l-0.28,0.005l-0.614-0.048l-0.016,0.03l0.299,0.032l0.169,0.031l0.238,0.006l0.229,0.009l0.137-0.021    l0.281-0.023l0.29-0.081l0.21-0.033l0.088-0.033L1391.478,636.934z"
         fill="#5FB746"
         id="path3936-2" /><path
         d="M1391.88,637.52l0.005-0.458l-0.062-0.062l-0.062-0.067    l-0.129-0.081l-0.105-0.057l-0.219-0.081l-0.195-0.062l-0.219-0.081l-0.329-0.124l-0.262-0.086l-0.186-0.048l0.438,0.234    l0.424,0.129l0.238,0.11l0.31,0.214l0.167,0.181l0.133,0.219L1391.88,637.52z"
         fill="#5F3418"
         id="path3934" /><path
         d="M1391.295,632.58l-0.045-0.054l-0.018-0.081l-0.014-0.085    l0.005-0.085v-0.108l0.049-0.162l0.05-0.081l0.022-0.031l0.022,0.031l0.041,0.054l0.054,0.099l0.018,0.081l0.004,0.072v0.094    l-0.018,0.085l-0.031,0.09l-0.045,0.072L1391.295,632.58z"
         fill="#17AC4F"
         id="path3940" /><path
         d="M1391.331,632.539l0.058-0.099l0.009-0.121l0.013-0.157    l-0.004-0.126h0.022l0.009,0.202l-0.022,0.153l-0.036,0.112L1391.331,632.539z"
         fill="#65BC46"
         id="path3938" /><path
         d="M1391.298,632.755l-0.031,0.011l-0.066-0.002    l-0.031-0.004l-0.025-0.011l-0.023-0.013l-0.05-0.033l-0.059-0.054l-0.046-0.059l-0.047-0.064l-0.041-0.038l-0.025-0.058    l-0.021-0.059l-0.001-0.04l0.006-0.053l0.038,0.04l0.344,0.338l0.068,0.07l0.018,0.013l-0.004,0.014L1391.298,632.755z"
         fill="#5FB746"
         id="path3960" /><path
         d="M1390.694,632.734l0.088,0.047l0.085,0.047l0.131,0.076    l0.135,0.073l0.113,0.064l0.042,0.026l0.003-0.119l-0.028-0.023l-0.05-0.045l-0.014-0.014l-0.056-0.048l-0.036-0.024l-0.043-0.024    l-0.033-0.015l-0.051-0.017l-0.033-0.012l-0.028-0.011l-0.05-0.009l-0.038-0.001h-0.044l-0.042,0.002l-0.026,0.001l-0.012,0.004    l-0.015,0.01L1390.694,632.734z"
         fill="#BFD730"
         id="path3962" /><path
         d="M1391.332,633.127l0.069,0.013l0.079-0.024    l0.081-0.03l0.072-0.045l0.094-0.052l0.117-0.122l0.046-0.083l0.017-0.035l-0.038-0.004l-0.067-0.009l-0.113,0.001l-0.079,0.024    l-0.065,0.031l-0.083,0.046l-0.066,0.057l-0.063,0.071l-0.041,0.074L1391.332,633.127z"
         fill="#5FB746"
         id="path3940-8-2-7-0" /><path
         d="M1390.38,634.371l-0.002-0.081l0.004-0.086l0.017-0.064    l0.028-0.065l0.033-0.083l0.096-0.11l0.014-0.017l-0.033-0.033l-0.031,0.024l-0.041,0.048l-0.034,0.06l-0.031,0.064l-0.021,0.062    l-0.017,0.048l-0.012,0.138l0.005,0.098L1390.38,634.371z"
         fill="#5FB746"
         id="path4206" /><path
         d="M1390.157,634.464l0.097-0.065l0.041-0.016l0.019-0.017    l0.028-0.01l0.079,0.004l0.036,0.019l0.12,0.114l-0.024,0.024l-0.022-0.026l-0.038-0.045l-0.024-0.028l-0.027-0.008l0.047,0.074    l0.031,0.062l0.016,0.034l-0.021-0.002l-0.034-0.064l-0.043-0.065l-0.01-0.002l0.003,0.1l-0.019-0.005v-0.107l-0.021-0.015    l-0.017-0.014l-0.017,0.005l0.003,0.084h-0.019l-0.01,0.048l-0.039,0.01l0.002-0.053l-0.024-0.003l-0.016,0.062l-0.04-0.034    l0.022-0.033l0.029-0.028l0.019-0.012l0.002-0.041l-0.017,0.002l-0.021,0.017l-0.014,0.014l-0.026,0.029l-0.002,0.034    l-0.028-0.003l-0.014-0.034L1390.157,634.464z"
         fill="#9F3F30"
         id="path4204" /><path
         d="m 1839.1057,833.12592 a 1.7575414,0.68149561 0 0 1 -1.7576,0.68149 1.7575414,0.68149561 0 0 1 -1.7575,-0.68149 1.7575414,0.68149561 0 0 1 1.7575,-0.6815 1.7575414,0.68149561 0 0 1 1.7576,0.6815 z"
         fill="#EF3B38"
         id="path4208-8-2" /><path
         d="M1390.133,634.543l0.06,0.007l0.04,0.022l0.029,0.007    v-0.026l-0.022-0.019l-0.031-0.012l-0.058,0.003l-0.021,0.004L1390.133,634.543z"
         fill="#F7A51F"
         id="path4253" /><path
         d="m 1839.1057,833.12592 a 1.7575414,0.68149561 0 0 1 -1.7576,0.68149 1.7575414,0.68149561 0 0 1 -1.7575,-0.68149 1.7575414,0.68149561 0 0 1 1.7575,-0.6815 1.7575414,0.68149561 0 0 1 1.7576,0.6815 z"
         fill="#EF3B38"
         id="path4208-8-2-98-3-8" /><path
         d="m 1839.1057,833.12592 a 1.7575414,0.68149561 0 0 1 -1.7576,0.68149 1.7575414,0.68149561 0 0 1 -1.7575,-0.68149 1.7575414,0.68149561 0 0 1 1.7575,-0.6815 1.7575414,0.68149561 0 0 1 1.7576,0.6815 z"
         fill="#010101"
         id="path4208" /><path
         d="m 1839.1057,833.12592 a 1.7575414,0.68149561 0 0 1 -1.7576,0.68149 1.7575414,0.68149561 0 0 1 -1.7575,-0.68149 1.7575414,0.68149561 0 0 1 1.7575,-0.6815 1.7575414,0.68149561 0 0 1 1.7576,0.6815 z"
         fill="#010101"
         id="path4208-8" /><path
         d="m 1839.1057,833.12592 a 1.7575414,0.68149561 0 0 1 -1.7576,0.68149 1.7575414,0.68149561 0 0 1 -1.7575,-0.68149 1.7575414,0.68149561 0 0 1 1.7575,-0.6815 1.7575414,0.68149561 0 0 1 1.7576,0.6815 z"
         fill="#010101"
         id="path4208-2" /><path
         d="m 1839.1057,833.12592 a 1.7575414,0.68149561 0 0 1 -1.7576,0.68149 1.7575414,0.68149561 0 0 1 -1.7575,-0.68149 1.7575414,0.68149561 0 0 1 1.7575,-0.6815 1.7575414,0.68149561 0 0 1 1.7576,0.6815 z"
         fill="#010101"
         id="path4208-4" /><path
         d="m 1839.1057,833.12592 a 1.7575414,0.68149561 0 0 1 -1.7576,0.68149 1.7575414,0.68149561 0 0 1 -1.7575,-0.68149 1.7575414,0.68149561 0 0 1 1.7575,-0.6815 1.7575414,0.68149561 0 0 1 1.7576,0.6815 z"
         fill="#010101"
         id="path4208-5" /><path
         d="M1389.865,634.732l0.131-0.017v-0.029l-0.117,0.012    l-0.019,0.024L1389.865,634.732z"
         fill="#F7A51F"
         id="path4249" /><path
         d="M1389.93,634.667l0.019-0.004v-0.046l-0.017-0.01    l-0.012-0.071l0.01-0.027l0.017-0.022l-0.017-0.004l-0.021,0.026l-0.009,0.023l-0.003,0.086v0.022l0.019,0.007L1389.93,634.667z"
         fill="#F7A51F"
         id="path4251" /><path
         d="M1390.516,634.689v-0.034l-0.019-0.038l-0.034-0.045    l-0.038-0.022h-0.11l-0.005,0.022l0.084,0.015l0.041,0.024l0.041,0.021l0.012,0.024L1390.516,634.689z"
         fill="#F7A51F"
         id="path4255" /><path
         d="M1390.587,634.883l-0.048-0.021l-0.034-0.009    l-0.026-0.027v-0.017l0.047,0.026l0.041,0.019L1390.587,634.883z"
         fill="#F7A51F"
         id="path4257" /><path
         d="M1390.759,634.696l0.002-0.04l-0.012-0.031l-0.038-0.043    l-0.033-0.033l-0.113-0.003l0.019,0.019l0.055,0.01l0.027,0.024l0.045,0.028l0.015,0.017L1390.759,634.696z"
         fill="#F7A51F"
         id="path4259" /><path
         d="M1390.833,634.591l-0.009-0.048l-0.014-0.026    l-0.029-0.024l-0.027-0.022l-0.024-0.015l-0.082,0.007l0.022,0.019l0.039,0.008l0.036,0.019l0.034,0.024l0.031,0.031    L1390.833,634.591z"
         fill="#F7A51F"
         id="path4261" /><path
         d="M1390.87,634.768l-0.033-0.017l-0.014-0.01l-0.041-0.01    l0.002-0.024h0.024l0.041,0.012l0.015,0.019L1390.87,634.768z"
         fill="#F7A51F"
         id="path4263" /><path
         d="M1390.253,634.904l0.022-0.031l0.033-0.036l-0.072-0.004    l0.002,0.04v0.022L1390.253,634.904z"
         fill="#FFFFFF"
         id="path4265" /><path
         d="M1390.932,637.071l0.015-0.069l-0.021-0.08    l-0.027-0.082l-0.043-0.074l-0.049-0.096l-0.118-0.121l-0.081-0.049l-0.034-0.018l-0.006,0.038l-0.012,0.066l-0.003,0.113    l0.021,0.08l0.029,0.066l0.043,0.084l0.055,0.068l0.069,0.066l0.073,0.044L1390.932,637.071z"
         fill="#17AC4F"
         id="path3940-8-4-9-7" /><path
         d="m 1839.1057,833.12592 a 1.7575414,0.68149561 0 0 1 -1.7576,0.68149 1.7575414,0.68149561 0 0 1 -1.7575,-0.68149 1.7575414,0.68149561 0 0 1 1.7575,-0.6815 1.7575414,0.68149561 0 0 1 1.7576,0.6815 z"
         fill="#EF3B38"
         id="path4208-8-2-98-3-8-6-9-8-6-6-2" /><path
         d="M1390.55,637.704l0.054-0.084l0.053-0.081    l0.087-0.124l0.084-0.128l0.072-0.108l0.029-0.04l-0.118-0.013l-0.025,0.026l-0.049,0.046l-0.015,0.013l-0.052,0.052l-0.026,0.034    l-0.027,0.041l-0.018,0.032l-0.021,0.049l-0.015,0.033l-0.013,0.027l-0.012,0.049l-0.004,0.037l-0.004,0.044l-0.001,0.042    l-0.001,0.026l0.003,0.012l0.009,0.016L1390.55,637.704z"
         fill="#BFD730"
         id="path3962-7-4-7" /><path
         d="m 1839.1057,833.12592 a 1.7575414,0.68149561 0 0 1 -1.7576,0.68149 1.7575414,0.68149561 0 0 1 -1.7575,-0.68149 1.7575414,0.68149561 0 0 1 1.7575,-0.6815 1.7575414,0.68149561 0 0 1 1.7576,0.6815 z"
         fill="#EF3B38"
         id="path4208-8-2-98-3-8-6-9-8-6-3" /><path
         d="M1389.648,637.115l-0.057,0.04l-0.082,0.012    l-0.086,0.007l-0.085-0.011l-0.108-0.008l-0.157-0.062l-0.077-0.056l-0.03-0.024l0.033-0.02l0.057-0.036l0.103-0.046l0.082-0.011    l0.072,0.001l0.094,0.008l0.084,0.024l0.087,0.039l0.068,0.05L1389.648,637.115z"
         fill="#17AC4F"
         id="path3940-0" /><path
         d="m 1839.1057,833.12592 a 1.7575414,0.68149561 0 0 1 -1.7576,0.68149 1.7575414,0.68149561 0 0 1 -1.7575,-0.68149 1.7575414,0.68149561 0 0 1 1.7575,-0.6815 1.7575414,0.68149561 0 0 1 1.7576,0.6815 z"
         fill="#EF3B38"
         id="path4208-8-2-98-3-8-6-9-8-8" /><path
         d="M1389.242,636.476l0.082-0.058l0.079-0.055l0.127-0.083    l0.126-0.088l0.107-0.073l0.042-0.026l-0.105-0.056l-0.033,0.015l-0.063,0.024l-0.019,0.006l-0.067,0.029l-0.037,0.021    l-0.04,0.028l-0.028,0.023l-0.038,0.038l-0.026,0.024l-0.022,0.021l-0.03,0.04l-0.018,0.033l-0.02,0.04l-0.017,0.038l-0.011,0.024    l-0.001,0.012l0.002,0.018L1389.242,636.476z"
         fill="#BFD730"
         id="path3962-9" /><path
         d="M1389.61,637.076l-0.094-0.066l-0.12-0.018    l-0.156-0.026l-0.126-0.006l0.002-0.022l0.202,0.007l0.151,0.035l0.109,0.045L1389.61,637.076z"
         fill="#65BC46"
         id="path3938-24" /><path
         d="m 1839.1057,833.12592 a 1.7575414,0.68149561 0 0 1 -1.7576,0.68149 1.7575414,0.68149561 0 0 1 -1.7575,-0.68149 1.7575414,0.68149561 0 0 1 1.7575,-0.6815 1.7575414,0.68149561 0 0 1 1.7576,0.6815 z"
         fill="#EF3B38"
         id="path4208-8-2-98-3-8-6-9-2" /><path
         d="M1389.823,637.125l0.008,0.032l-0.007,0.065    l-0.007,0.031l-0.013,0.024l-0.015,0.022l-0.037,0.047l-0.058,0.055l-0.063,0.042l-0.067,0.041l-0.041,0.038l-0.06,0.02    l-0.061,0.017l-0.04-0.002l-0.052-0.011l0.043-0.034l0.365-0.317l0.075-0.062l0.014-0.017l0.014,0.006L1389.823,637.125z"
         fill="#5FB746"
         id="path3960-10" /><path
         d="m 1839.1057,833.12592 a 1.7575414,0.68149561 0 0 1 -1.7576,0.68149 1.7575414,0.68149561 0 0 1 -1.7575,-0.68149 1.7575414,0.68149561 0 0 1 1.7575,-0.6815 1.7575414,0.68149561 0 0 1 1.7576,0.6815 z"
         fill="#EF3B38"
         id="path4208-8-2-98-3-8-6-6" /><path
         d="M1389.755,637.726l0.054-0.084l0.053-0.081    l0.086-0.124l0.084-0.129l0.072-0.108l0.029-0.04l-0.118-0.012l-0.025,0.026l-0.049,0.046l-0.015,0.013l-0.052,0.053l-0.026,0.033    l-0.027,0.041l-0.018,0.032l-0.021,0.049l-0.015,0.032l-0.013,0.027l-0.013,0.049l-0.004,0.038l-0.003,0.044l-0.001,0.042    l-0.001,0.026l0.003,0.012l0.009,0.016L1389.755,637.726z"
         fill="#BFD730"
         id="path3962-37" /><path
         d="m 1839.1057,833.12592 a 1.7575414,0.68149561 0 0 1 -1.7576,0.68149 1.7575414,0.68149561 0 0 1 -1.7575,-0.68149 1.7575414,0.68149561 0 0 1 1.7575,-0.6815 1.7575414,0.68149561 0 0 1 1.7576,0.6815 z"
         fill="#EF3B38"
         id="path4208-8-2-98-3-2" /><path
         d="M1390.196,637.12l0.019-0.067l-0.017-0.081    l-0.023-0.083l-0.04-0.075l-0.045-0.098l-0.112-0.127l-0.079-0.053l-0.034-0.02l-0.007,0.038l-0.014,0.066l-0.008,0.112    l0.017,0.081l0.026,0.067l0.039,0.086l0.052,0.07l0.066,0.068l0.071,0.047L1390.196,637.12z"
         fill="#5FB746"
         id="path3940-8-2-7-0-3" /><path
         d="m 1839.1057,833.12592 a 1.7575414,0.68149561 0 0 1 -1.7576,0.68149 1.7575414,0.68149561 0 0 1 -1.7575,-0.68149 1.7575414,0.68149561 0 0 1 1.7575,-0.6815 1.7575414,0.68149561 0 0 1 1.7576,0.6815 z"
         fill="#EF3B38"
         id="path4208-8-2-98-7" /><path
         d="m 1839.1057,833.12592 a 1.7575414,0.68149561 0 0 1 -1.7576,0.68149 1.7575414,0.68149561 0 0 1 -1.7575,-0.68149 1.7575414,0.68149561 0 0 1 1.7575,-0.6815 1.7575414,0.68149561 0 0 1 1.7576,0.6815 z"
         fill="#EF3B38"
         id="path4208-8-2-9-5" /><path
         d="M1389.877,636.079l0.042-0.056l0.014-0.082    l0.009-0.086l-0.009-0.085l-0.005-0.108l-0.057-0.159l-0.053-0.079l-0.024-0.03l-0.021,0.032l-0.038,0.056l-0.049,0.101    l-0.014,0.082l-0.001,0.072l0.005,0.094l0.022,0.084l0.036,0.088l0.048,0.07L1389.877,636.079z"
         fill="#5FB746"
         id="path3940-8-2-7-0-1" /><path
         d="M1390.171,636.773l0.096-0.066l0.041-0.015l0.019-0.017    l0.027-0.01l0.079,0.004l0.036,0.019l0.12,0.114l-0.024,0.024l-0.022-0.026l-0.038-0.045l-0.024-0.028l-0.027-0.009l0.047,0.074    l0.031,0.062l0.015,0.034l-0.021-0.002l-0.035-0.064l-0.043-0.065l-0.01-0.002l0.003,0.1l-0.019-0.005v-0.106l-0.021-0.016    l-0.017-0.014l-0.017,0.005l0.004,0.084h-0.019l-0.01,0.048l-0.039,0.01l0.002-0.053l-0.024-0.003l-0.016,0.062l-0.039-0.034    l0.022-0.033l0.029-0.027l0.019-0.012l0.002-0.042l-0.017,0.002l-0.021,0.017l-0.014,0.014l-0.026,0.029l-0.002,0.034    l-0.028-0.004l-0.014-0.034L1390.171,636.773z"
         fill="#9F3F30"
         id="path4204-7" /><path
         d="m 1839.1057,833.12592 a 1.7575414,0.68149561 0 0 1 -1.7576,0.68149 1.7575414,0.68149561 0 0 1 -1.7575,-0.68149 1.7575414,0.68149561 0 0 1 1.7575,-0.6815 1.7575414,0.68149561 0 0 1 1.7576,0.6815 z"
         fill="#EF3B38"
         id="path4208-8-2-8" /><path
         d="M1390.147,636.852l0.06,0.007l0.04,0.022l0.029,0.007    v-0.026l-0.022-0.019l-0.031-0.012l-0.058,0.004l-0.021,0.004L1390.147,636.852z"
         fill="#F7A51F"
         id="path4253-2" /><path
         d="m 1839.1057,833.12592 a 1.7575414,0.68149561 0 0 1 -1.7576,0.68149 1.7575414,0.68149561 0 0 1 -1.7575,-0.68149 1.7575414,0.68149561 0 0 1 1.7575,-0.6815 1.7575414,0.68149561 0 0 1 1.7576,0.6815 z"
         fill="#EF3B38"
         id="path4208-8-2-98-3-8-7" /><path
         d="m 1839.1057,833.12592 a 1.7575414,0.68149561 0 0 1 -1.7576,0.68149 1.7575414,0.68149561 0 0 1 -1.7575,-0.68149 1.7575414,0.68149561 0 0 1 1.7575,-0.6815 1.7575414,0.68149561 0 0 1 1.7576,0.6815 z"
         fill="#010101"
         id="path4208-80" /><path
         d="m 1839.1057,833.12592 a 1.7575414,0.68149561 0 0 1 -1.7576,0.68149 1.7575414,0.68149561 0 0 1 -1.7575,-0.68149 1.7575414,0.68149561 0 0 1 1.7575,-0.6815 1.7575414,0.68149561 0 0 1 1.7576,0.6815 z"
         fill="#010101"
         id="path4208-8-20" /><path
         d="m 1839.1057,833.12592 a 1.7575414,0.68149561 0 0 1 -1.7576,0.68149 1.7575414,0.68149561 0 0 1 -1.7575,-0.68149 1.7575414,0.68149561 0 0 1 1.7575,-0.6815 1.7575414,0.68149561 0 0 1 1.7576,0.6815 z"
         fill="#010101"
         id="path4208-2-8" /><path
         d="m 1839.1057,833.12592 a 1.7575414,0.68149561 0 0 1 -1.7576,0.68149 1.7575414,0.68149561 0 0 1 -1.7575,-0.68149 1.7575414,0.68149561 0 0 1 1.7575,-0.6815 1.7575414,0.68149561 0 0 1 1.7576,0.6815 z"
         fill="#010101"
         id="path4208-4-9" /><path
         d="m 1839.1057,833.12592 a 1.7575414,0.68149561 0 0 1 -1.7576,0.68149 1.7575414,0.68149561 0 0 1 -1.7575,-0.68149 1.7575414,0.68149561 0 0 1 1.7575,-0.6815 1.7575414,0.68149561 0 0 1 1.7576,0.6815 z"
         fill="#010101"
         id="path4208-5-2" /><path
         d="M1389.879,637.041l0.131-0.017v-0.029l-0.117,0.012    l-0.019,0.024L1389.879,637.041z"
         fill="#F7A51F"
         id="path4249-8" /><path
         d="M1389.945,636.976l0.019-0.004v-0.046l-0.017-0.01    l-0.012-0.071l0.01-0.028l0.017-0.022l-0.017-0.004l-0.021,0.026l-0.009,0.022l-0.003,0.086v0.023l0.019,0.006L1389.945,636.976z"
         fill="#F7A51F"
         id="path4251-2" /><path
         d="M1390.531,636.998v-0.034l-0.019-0.038l-0.034-0.045    l-0.038-0.022h-0.11l-0.005,0.022l0.084,0.016l0.041,0.024l0.041,0.021l0.012,0.024L1390.531,636.998z"
         fill="#F7A51F"
         id="path4255-0" /><path
         d="M1390.601,637.193l-0.048-0.021l-0.034-0.008    l-0.026-0.027v-0.017l0.047,0.026l0.041,0.019L1390.601,637.193z"
         fill="#F7A51F"
         id="path4257-5" /><path
         d="M1390.773,637.005l0.002-0.039l-0.012-0.031    l-0.038-0.043l-0.033-0.033l-0.113-0.004l0.019,0.019l0.055,0.01l0.028,0.024l0.045,0.028l0.015,0.017L1390.773,637.005z"
         fill="#F7A51F"
         id="path4259-5" /><path
         d="M1390.847,636.9l-0.009-0.048l-0.014-0.026    l-0.029-0.024l-0.027-0.022l-0.024-0.016l-0.083,0.007l0.023,0.019l0.039,0.009l0.036,0.019l0.034,0.024l0.031,0.031    L1390.847,636.9z"
         fill="#F7A51F"
         id="path4261-2" /><path
         d="M1390.885,637.077l-0.033-0.017l-0.014-0.01    l-0.041-0.01l0.002-0.024h0.024l0.041,0.012l0.016,0.019L1390.885,637.077z"
         fill="#F7A51F"
         id="path4263-7" /><path
         d="M1393.885,637.027l-0.024-0.022l-0.012-0.025l0.012-0.049    l0.002-0.061l0.01-0.023l0.008,0.023l0.021,0.026l0.018,0.026v0.057l-0.006,0.021L1393.885,637.027z"
         fill="#FFFFFF"
         id="path4528" /><path
         d="M1393.683,637.178l-0.021-0.013l-0.017-0.02l-0.02-0.01    l0.004-0.018l0.021-0.002l0.039,0.002l0.018,0.002l0.004,0.035l-0.002,0.022L1393.683,637.178z"
         fill="#FFFFFF"
         id="path4530" /><path
         d="M1393.411,637.062l-0.021-0.023l-0.006-0.027l0.027,0.01    l0.006,0.02L1393.411,637.062z"
         fill="#FFFFFF"
         id="path4532" /><path
         d="M1393.545,636.622l0.002-0.081l-0.004-0.086    l-0.017-0.064l-0.028-0.065l-0.033-0.083l-0.096-0.11l-0.014-0.017l0.033-0.033l0.031,0.024l0.041,0.048l0.034,0.06l0.031,0.064    l0.021,0.062l0.017,0.048l0.012,0.137l-0.005,0.098L1393.545,636.622z"
         fill="#5FB746"
         id="path4206-3-5" /><path
         d="m 1839.1057,833.12592 a 1.7575414,0.68149561 0 0 1 -1.7576,0.68149 1.7575414,0.68149561 0 0 1 -1.7575,-0.68149 1.7575414,0.68149561 0 0 1 1.7575,-0.6815 1.7575414,0.68149561 0 0 1 1.7576,0.6815 z"
         fill="#EF3B38"
         id="path4208-8-2-98-3-8-6-9-8-6-6-2-0" /><path
         d="m 1839.1057,833.12592 a 1.7575414,0.68149561 0 0 1 -1.7576,0.68149 1.7575414,0.68149561 0 0 1 -1.7575,-0.68149 1.7575414,0.68149561 0 0 1 1.7575,-0.6815 1.7575414,0.68149561 0 0 1 1.7576,0.6815 z"
         fill="#EF3B38"
         id="path4208-8-2-98-3-8-6-9-8-6-3-7" /><path
         d="m 1839.1057,833.12592 a 1.7575414,0.68149561 0 0 1 -1.7576,0.68149 1.7575414,0.68149561 0 0 1 -1.7575,-0.68149 1.7575414,0.68149561 0 0 1 1.7575,-0.6815 1.7575414,0.68149561 0 0 1 1.7576,0.6815 z"
         fill="#EF3B38"
         id="path4208-8-2-98-3-8-6-9-8-8-6" /><path
         d="m 1839.1057,833.12592 a 1.7575414,0.68149561 0 0 1 -1.7576,0.68149 1.7575414,0.68149561 0 0 1 -1.7575,-0.68149 1.7575414,0.68149561 0 0 1 1.7575,-0.6815 1.7575414,0.68149561 0 0 1 1.7576,0.6815 z"
         fill="#EF3B38"
         id="path4208-8-2-98-3-8-6-9-2-7" /><path
         d="m 1839.1057,833.12592 a 1.7575414,0.68149561 0 0 1 -1.7576,0.68149 1.7575414,0.68149561 0 0 1 -1.7575,-0.68149 1.7575414,0.68149561 0 0 1 1.7575,-0.6815 1.7575414,0.68149561 0 0 1 1.7576,0.6815 z"
         fill="#EF3B38"
         id="path4208-8-2-98-3-8-6-6-8" /><path
         d="m 1839.1057,833.12592 a 1.7575414,0.68149561 0 0 1 -1.7576,0.68149 1.7575414,0.68149561 0 0 1 -1.7575,-0.68149 1.7575414,0.68149561 0 0 1 1.7575,-0.6815 1.7575414,0.68149561 0 0 1 1.7576,0.6815 z"
         fill="#EF3B38"
         id="path4208-8-2-98-3-2-3" /><path
         d="m 1839.1057,833.12592 a 1.7575414,0.68149561 0 0 1 -1.7576,0.68149 1.7575414,0.68149561 0 0 1 -1.7575,-0.68149 1.7575414,0.68149561 0 0 1 1.7575,-0.6815 1.7575414,0.68149561 0 0 1 1.7576,0.6815 z"
         fill="#EF3B38"
         id="path4208-8-2-98-7-6" /><path
         d="m 1839.1057,833.12592 a 1.7575414,0.68149561 0 0 1 -1.7576,0.68149 1.7575414,0.68149561 0 0 1 -1.7575,-0.68149 1.7575414,0.68149561 0 0 1 1.7575,-0.6815 1.7575414,0.68149561 0 0 1 1.7576,0.6815 z"
         fill="#EF3B38"
         id="path4208-8-2-9-5-4" /><path
         d="M1393.799,636.727l-0.096-0.065l-0.041-0.016    l-0.019-0.017l-0.027-0.01l-0.079,0.004l-0.036,0.019l-0.12,0.114l0.024,0.024l0.022-0.026l0.038-0.045l0.024-0.027l0.027-0.009    l-0.047,0.074l-0.031,0.062l-0.015,0.034l0.021-0.002l0.034-0.064l0.043-0.065l0.01-0.001l-0.003,0.099l0.019-0.005v-0.107    l0.021-0.016l0.017-0.013l0.017,0.005l-0.003,0.084h0.019l0.01,0.048l0.04,0.01l-0.002-0.053l0.024-0.004l0.016,0.062l0.039-0.034    l-0.022-0.033l-0.029-0.028l-0.019-0.012l-0.002-0.041l0.017,0.002l0.02,0.017l0.014,0.013l0.026,0.029l0.002,0.035l0.027-0.004    l0.014-0.034L1393.799,636.727z"
         fill="#9F3F30"
         id="path4204-7-4" /><path
         d="m 1839.1057,833.12592 a 1.7575414,0.68149561 0 0 1 -1.7576,0.68149 1.7575414,0.68149561 0 0 1 -1.7575,-0.68149 1.7575414,0.68149561 0 0 1 1.7575,-0.6815 1.7575414,0.68149561 0 0 1 1.7576,0.6815 z"
         fill="#EF3B38"
         id="path4208-8-2-8-1" /><path
         d="M1393.823,636.806l-0.06,0.007l-0.04,0.023    l-0.029,0.007v-0.026l0.022-0.019l0.031-0.012l0.058,0.003l0.021,0.004L1393.823,636.806z"
         fill="#F7A51F"
         id="path4253-2-9" /><path
         d="m 1839.1057,833.12592 a 1.7575414,0.68149561 0 0 1 -1.7576,0.68149 1.7575414,0.68149561 0 0 1 -1.7575,-0.68149 1.7575414,0.68149561 0 0 1 1.7575,-0.6815 1.7575414,0.68149561 0 0 1 1.7576,0.6815 z"
         fill="#EF3B38"
         id="path4208-8-2-98-3-8-7-5" /><path
         d="m 1839.1057,833.12592 a 1.7575414,0.68149561 0 0 1 -1.7576,0.68149 1.7575414,0.68149561 0 0 1 -1.7575,-0.68149 1.7575414,0.68149561 0 0 1 1.7575,-0.6815 1.7575414,0.68149561 0 0 1 1.7576,0.6815 z"
         fill="#010101"
         id="path4208-80-5" /><path
         d="m 1839.1057,833.12592 a 1.7575414,0.68149561 0 0 1 -1.7576,0.68149 1.7575414,0.68149561 0 0 1 -1.7575,-0.68149 1.7575414,0.68149561 0 0 1 1.7575,-0.6815 1.7575414,0.68149561 0 0 1 1.7576,0.6815 z"
         fill="#010101"
         id="path4208-8-20-7" /><path
         d="m 1839.1057,833.12592 a 1.7575414,0.68149561 0 0 1 -1.7576,0.68149 1.7575414,0.68149561 0 0 1 -1.7575,-0.68149 1.7575414,0.68149561 0 0 1 1.7575,-0.6815 1.7575414,0.68149561 0 0 1 1.7576,0.6815 z"
         fill="#010101"
         id="path4208-2-8-4" /><path
         d="m 1839.1057,833.12592 a 1.7575414,0.68149561 0 0 1 -1.7576,0.68149 1.7575414,0.68149561 0 0 1 -1.7575,-0.68149 1.7575414,0.68149561 0 0 1 1.7575,-0.6815 1.7575414,0.68149561 0 0 1 1.7576,0.6815 z"
         fill="#010101"
         id="path4208-4-9-7" /><path
         d="m 1839.1057,833.12592 a 1.7575414,0.68149561 0 0 1 -1.7576,0.68149 1.7575414,0.68149561 0 0 1 -1.7575,-0.68149 1.7575414,0.68149561 0 0 1 1.7575,-0.6815 1.7575414,0.68149561 0 0 1 1.7576,0.6815 z"
         fill="#010101"
         id="path4208-5-2-3" /><path
         d="M1394.091,636.995l-0.13-0.017v-0.029l0.117,0.012    l0.019,0.024L1394.091,636.995z"
         fill="#F7A51F"
         id="path4249-8-4" /><path
         d="M1394.026,636.93l-0.019-0.004v-0.047l0.017-0.01    l0.012-0.07l-0.01-0.028l-0.017-0.022l0.017-0.003l0.021,0.026l0.009,0.022l0.004,0.086v0.022l-0.019,0.007L1394.026,636.93z"
         fill="#F7A51F"
         id="path4251-2-0" /><path
         d="M1393.44,636.953v-0.034l0.019-0.038l0.034-0.044    l0.038-0.023h0.11l0.005,0.023l-0.084,0.015l-0.041,0.024l-0.041,0.021l-0.012,0.024L1393.44,636.953z"
         fill="#F7A51F"
         id="path4255-0-8" /><path
         d="M1393.369,637.147l0.048-0.021l0.034-0.008    l0.026-0.028v-0.017l-0.046,0.026l-0.041,0.019L1393.369,637.147z"
         fill="#F7A51F"
         id="path4257-5-8" /><path
         d="M1393.198,636.959l-0.002-0.039l0.012-0.031    l0.038-0.043l0.033-0.033l0.114-0.004l-0.019,0.019l-0.055,0.01l-0.028,0.024l-0.045,0.027l-0.016,0.017L1393.198,636.959z"
         fill="#F7A51F"
         id="path4259-5-1" /><path
         d="M1393.124,636.854l0.009-0.048l0.014-0.026    l0.029-0.024l0.027-0.022l0.024-0.016l0.083,0.007l-0.022,0.018l-0.04,0.009l-0.036,0.019l-0.034,0.024l-0.031,0.031    L1393.124,636.854z"
         fill="#F7A51F"
         id="path4261-2-5" /><path
         d="M1393.086,637.032l0.033-0.017l0.014-0.01l0.041-0.01    l-0.002-0.024h-0.024l-0.041,0.012l-0.015,0.019L1393.086,637.032z"
         fill="#F7A51F"
         id="path4263-7-2" /><path
         d="M1393.461,634.772l0.002-0.081l-0.004-0.086    l-0.017-0.064l-0.027-0.065l-0.033-0.083l-0.096-0.11l-0.014-0.017l0.033-0.033l0.031,0.024l0.041,0.048l0.034,0.06l0.031,0.064    l0.021,0.062l0.017,0.048l0.012,0.138l-0.005,0.098L1393.461,634.772z"
         fill="#5FB746"
         id="path4206-3-5-34" /><path
         d="m 1839.1057,833.12592 a 1.7575414,0.68149561 0 0 1 -1.7576,0.68149 1.7575414,0.68149561 0 0 1 -1.7575,-0.68149 1.7575414,0.68149561 0 0 1 1.7575,-0.6815 1.7575414,0.68149561 0 0 1 1.7576,0.6815 z"
         fill="#EF3B38"
         id="path4208-8-2-98-3-8-6-9-8-6-6-2-0-9" /><path
         d="m 1839.1057,833.12592 a 1.7575414,0.68149561 0 0 1 -1.7576,0.68149 1.7575414,0.68149561 0 0 1 -1.7575,-0.68149 1.7575414,0.68149561 0 0 1 1.7575,-0.6815 1.7575414,0.68149561 0 0 1 1.7576,0.6815 z"
         fill="#EF3B38"
         id="path4208-8-2-98-3-8-6-9-8-6-3-7-0" /><path
         d="m 1839.1057,833.12592 a 1.7575414,0.68149561 0 0 1 -1.7576,0.68149 1.7575414,0.68149561 0 0 1 -1.7575,-0.68149 1.7575414,0.68149561 0 0 1 1.7575,-0.6815 1.7575414,0.68149561 0 0 1 1.7576,0.6815 z"
         fill="#EF3B38"
         id="path4208-8-2-98-3-8-6-9-8-8-6-5" /><path
         d="m 1839.1057,833.12592 a 1.7575414,0.68149561 0 0 1 -1.7576,0.68149 1.7575414,0.68149561 0 0 1 -1.7575,-0.68149 1.7575414,0.68149561 0 0 1 1.7575,-0.6815 1.7575414,0.68149561 0 0 1 1.7576,0.6815 z"
         fill="#EF3B38"
         id="path4208-8-2-98-3-8-6-9-2-7-3" /><path
         d="m 1839.1057,833.12592 a 1.7575414,0.68149561 0 0 1 -1.7576,0.68149 1.7575414,0.68149561 0 0 1 -1.7575,-0.68149 1.7575414,0.68149561 0 0 1 1.7575,-0.6815 1.7575414,0.68149561 0 0 1 1.7576,0.6815 z"
         fill="#EF3B38"
         id="path4208-8-2-98-3-8-6-6-8-9" /><path
         d="m 1839.1057,833.12592 a 1.7575414,0.68149561 0 0 1 -1.7576,0.68149 1.7575414,0.68149561 0 0 1 -1.7575,-0.68149 1.7575414,0.68149561 0 0 1 1.7575,-0.6815 1.7575414,0.68149561 0 0 1 1.7576,0.6815 z"
         fill="#EF3B38"
         id="path4208-8-2-98-3-2-3-1" /><path
         d="m 1839.1057,833.12592 a 1.7575414,0.68149561 0 0 1 -1.7576,0.68149 1.7575414,0.68149561 0 0 1 -1.7575,-0.68149 1.7575414,0.68149561 0 0 1 1.7575,-0.6815 1.7575414,0.68149561 0 0 1 1.7576,0.6815 z"
         fill="#EF3B38"
         id="path4208-8-2-98-7-6-2" /><path
         d="m 1839.1057,833.12592 a 1.7575414,0.68149561 0 0 1 -1.7576,0.68149 1.7575414,0.68149561 0 0 1 -1.7575,-0.68149 1.7575414,0.68149561 0 0 1 1.7575,-0.6815 1.7575414,0.68149561 0 0 1 1.7576,0.6815 z"
         fill="#EF3B38"
         id="path4208-8-2-9-5-4-8" /><path
         d="M1393.715,634.876l-0.096-0.065l-0.041-0.015    l-0.019-0.017l-0.028-0.01l-0.079,0.004l-0.036,0.019l-0.12,0.114l0.024,0.024l0.022-0.026l0.038-0.045l0.024-0.028l0.027-0.009    l-0.047,0.074l-0.031,0.062l-0.015,0.034l0.021-0.002l0.034-0.064l0.043-0.065l0.01-0.002l-0.004,0.1l0.019-0.005v-0.107    l0.021-0.015l0.017-0.014l0.017,0.005l-0.004,0.084h0.019l0.01,0.048l0.04,0.01l-0.002-0.053l0.024-0.003l0.016,0.062l0.04-0.034    l-0.022-0.033l-0.029-0.027l-0.019-0.012l-0.002-0.041l0.017,0.002l0.021,0.017l0.014,0.014l0.026,0.029l0.002,0.034l0.027-0.003    l0.014-0.034L1393.715,634.876z"
         fill="#9F3F30"
         id="path4204-7-4-8" /><path
         d="m 1839.1057,833.12592 a 1.7575414,0.68149561 0 0 1 -1.7576,0.68149 1.7575414,0.68149561 0 0 1 -1.7575,-0.68149 1.7575414,0.68149561 0 0 1 1.7575,-0.6815 1.7575414,0.68149561 0 0 1 1.7576,0.6815 z"
         fill="#EF3B38"
         id="path4208-8-2-8-1-1" /><path
         d="M1393.739,634.956l-0.06,0.007l-0.04,0.022    l-0.029,0.007v-0.026l0.022-0.019l0.031-0.012l0.058,0.003l0.021,0.004L1393.739,634.956z"
         fill="#F7A51F"
         id="path4253-2-9-8" /><path
         d="m 1839.1057,833.12592 a 1.7575414,0.68149561 0 0 1 -1.7576,0.68149 1.7575414,0.68149561 0 0 1 -1.7575,-0.68149 1.7575414,0.68149561 0 0 1 1.7575,-0.6815 1.7575414,0.68149561 0 0 1 1.7576,0.6815 z"
         fill="#EF3B38"
         id="path4208-8-2-98-3-8-7-5-6" /><path
         d="m 1839.1057,833.12592 a 1.7575414,0.68149561 0 0 1 -1.7576,0.68149 1.7575414,0.68149561 0 0 1 -1.7575,-0.68149 1.7575414,0.68149561 0 0 1 1.7575,-0.6815 1.7575414,0.68149561 0 0 1 1.7576,0.6815 z"
         fill="#010101"
         id="path4208-80-5-0" /><path
         d="m 1839.1057,833.12592 a 1.7575414,0.68149561 0 0 1 -1.7576,0.68149 1.7575414,0.68149561 0 0 1 -1.7575,-0.68149 1.7575414,0.68149561 0 0 1 1.7575,-0.6815 1.7575414,0.68149561 0 0 1 1.7576,0.6815 z"
         fill="#010101"
         id="path4208-8-20-7-2" /><path
         d="m 1839.1057,833.12592 a 1.7575414,0.68149561 0 0 1 -1.7576,0.68149 1.7575414,0.68149561 0 0 1 -1.7575,-0.68149 1.7575414,0.68149561 0 0 1 1.7575,-0.6815 1.7575414,0.68149561 0 0 1 1.7576,0.6815 z"
         fill="#010101"
         id="path4208-2-8-4-4" /><path
         d="m 1839.1057,833.12592 a 1.7575414,0.68149561 0 0 1 -1.7576,0.68149 1.7575414,0.68149561 0 0 1 -1.7575,-0.68149 1.7575414,0.68149561 0 0 1 1.7575,-0.6815 1.7575414,0.68149561 0 0 1 1.7576,0.6815 z"
         fill="#010101"
         id="path4208-4-9-7-9" /><path
         d="m 1839.1057,833.12592 a 1.7575414,0.68149561 0 0 1 -1.7576,0.68149 1.7575414,0.68149561 0 0 1 -1.7575,-0.68149 1.7575414,0.68149561 0 0 1 1.7575,-0.6815 1.7575414,0.68149561 0 0 1 1.7576,0.6815 z"
         fill="#010101"
         id="path4208-5-2-3-0" /><path
         d="M1394.007,635.145l-0.131-0.017v-0.029l0.117,0.012    l0.019,0.024L1394.007,635.145z"
         fill="#F7A51F"
         id="path4249-8-4-2" /><path
         d="M1393.942,635.079l-0.019-0.003v-0.047l0.017-0.01    l0.012-0.07l-0.01-0.028l-0.017-0.022l0.017-0.004l0.021,0.026l0.008,0.022l0.004,0.086v0.022l-0.019,0.007L1393.942,635.079z"
         fill="#F7A51F"
         id="path4251-2-0-2" /><path
         d="M1393.355,635.102v-0.034l0.019-0.038l0.034-0.045    l0.038-0.022h0.11l0.005,0.022l-0.084,0.015l-0.041,0.024l-0.041,0.021l-0.012,0.024L1393.355,635.102z"
         fill="#F7A51F"
         id="path4255-0-8-1" /><path
         d="M1393.285,635.296l0.048-0.021l0.034-0.009    l0.026-0.027v-0.017l-0.046,0.026l-0.041,0.019L1393.285,635.296z"
         fill="#F7A51F"
         id="path4257-5-8-54" /><path
         d="M1393.113,635.109l-0.002-0.04l0.012-0.031    l0.038-0.043l0.033-0.033l0.113-0.003l-0.019,0.019l-0.055,0.01l-0.028,0.024l-0.045,0.027l-0.015,0.017L1393.113,635.109z"
         fill="#F7A51F"
         id="path4259-5-1-4" /><path
         d="M1393.039,635.004l0.009-0.048l0.014-0.026    l0.029-0.024l0.027-0.023l0.024-0.015l0.083,0.007l-0.022,0.019l-0.04,0.008l-0.036,0.019l-0.034,0.024l-0.031,0.031    L1393.039,635.004z"
         fill="#F7A51F"
         id="path4261-2-5-42" /><path
         d="M1393.001,635.181l0.033-0.017l0.014-0.01    l0.041-0.01l-0.002-0.024h-0.024l-0.041,0.012l-0.016,0.019L1393.001,635.181z"
         fill="#F7A51F"
         id="path4263-7-2-5" /><path
         d="M1393.303,636.337l-0.008,0.061l0.025,0.068    l0.03,0.07l0.043,0.062l0.051,0.08l0.113,0.098l0.075,0.037l0.032,0.013l0.002-0.034l0.005-0.059l-0.006-0.099l-0.025-0.069    l-0.03-0.056l-0.044-0.071l-0.053-0.055l-0.066-0.052l-0.068-0.033L1393.303,636.337z"
         fill="#17AC4F"
         id="path3940-8-9-1-5-9-0" /><path
         d="M1393.622,636.314l-0.019-0.059l0.012-0.072    l0.017-0.074l0.032-0.069l0.036-0.088l0.094-0.116l0.067-0.05l0.029-0.018l0.008,0.033l0.015,0.057l0.011,0.099l-0.012,0.072    l-0.02,0.06l-0.031,0.077l-0.043,0.064l-0.055,0.063l-0.061,0.044L1393.622,636.314z"
         fill="#5FB746"
         id="path3940-8-2-7-7-5-3" /><path
         d="M1393.979,636.32l-0.004,0.062l0.029,0.067    l0.035,0.067l0.048,0.059l0.056,0.077l0.119,0.089l0.077,0.032l0.032,0.011l0-0.034l0-0.06l-0.013-0.098l-0.029-0.067    l-0.034-0.054l-0.049-0.067l-0.057-0.051l-0.069-0.048l-0.069-0.028L1393.979,636.32z"
         fill="#5FB746"
         id="path3940-8-2-33-9-6" /><path
         d="M1394.267,636.242l0.009,0.061l0.043,0.059    l0.049,0.059l0.059,0.047l0.071,0.063l0.136,0.061l0.083,0.015l0.034,0.003l-0.008-0.033l-0.012-0.058l-0.034-0.093l-0.043-0.059    l-0.045-0.045l-0.063-0.055l-0.067-0.038l-0.078-0.032l-0.074-0.012L1394.267,636.242z"
         fill="#17AC4F"
         id="path3940-8-42-7-2" /><path
         d="M1394.245,636.237l-0.016-0.06l0.015-0.071    l0.021-0.073l0.035-0.067l0.04-0.087l0.099-0.111l0.069-0.047l0.03-0.017l0.006,0.033l0.013,0.058l0.007,0.099l-0.015,0.072    l-0.023,0.059l-0.035,0.076l-0.046,0.062l-0.058,0.06l-0.062,0.041L1394.245,636.237z"
         fill="#17AC4F"
         id="path3940-8-4-2-2-0" /><path
         d="M1393.656,636.352l-0.008,0.061l0.025,0.069    l0.03,0.07l0.043,0.062l0.051,0.08l0.113,0.098l0.075,0.037l0.031,0.013l0.002-0.034l0.005-0.059l-0.006-0.099l-0.024-0.069    l-0.031-0.056l-0.044-0.071l-0.054-0.055l-0.066-0.052l-0.067-0.032L1393.656,636.352z"
         fill="#17AC4F"
         id="path3940-8-9-0-0-2" /><path
         d="M1394.017,636.812l-0.051-0.072l-0.05-0.069    l-0.081-0.106l-0.079-0.11l-0.068-0.092l-0.027-0.034l0.103-0.016l0.023,0.022l0.045,0.039l0.014,0.011l0.047,0.044l0.025,0.028    l0.025,0.035l0.017,0.027l0.021,0.043l0.014,0.028l0.013,0.023l0.013,0.043l0.005,0.033l0.005,0.039l0.003,0.037l0.002,0.023    l-0.002,0.011l-0.007,0.014L1394.017,636.812z"
         fill="#BFD730"
         id="path3962-7-1-2-8" /><path
         d="M1392.815,636.155l0.167,0.059l0.202,0.047    l0.29,0.024l0.175-0.006l0.247-0.007l0.539-0.067l0.015,0.026l-0.262,0.04l-0.147,0.034l-0.21,0.014l-0.202,0.017l-0.121-0.013    l-0.249-0.009l-0.259-0.06l-0.186-0.021l-0.079-0.026L1392.815,636.155z"
         fill="#5FB746"
         id="path3936-2-8-4" /><path
         d="M1393.302,636.255l-0.016-0.06l0.015-0.071    l0.02-0.073l0.035-0.067l0.04-0.087l0.099-0.112l0.069-0.047l0.029-0.017l0.007,0.033l0.013,0.058l0.007,0.099l-0.015,0.072    l-0.023,0.059l-0.035,0.076l-0.046,0.062l-0.058,0.061l-0.063,0.041L1393.302,636.255z"
         fill="#17AC4F"
         id="path3940-8-4-9-7-6-1" /><path
         d="M1393.664,636.797l-0.051-0.072l-0.05-0.07    l-0.081-0.106l-0.079-0.11l-0.068-0.092l-0.027-0.034l0.104-0.016l0.023,0.022l0.045,0.038l0.014,0.011l0.048,0.044l0.025,0.028    l0.025,0.036l0.017,0.028l0.02,0.042l0.014,0.028l0.013,0.023l0.013,0.043l0.005,0.033l0.005,0.039l0.003,0.037l0.002,0.023    l-0.002,0.011l-0.007,0.015H1393.664z"
         fill="#BFD730"
         id="path3962-7-4-7-7-8" /><path
         d="M1394.435,636.242l0.052,0.034l0.073,0.007    l0.076,0.003l0.074-0.013l0.094-0.011l0.136-0.061l0.066-0.052l0.025-0.023l-0.03-0.016l-0.052-0.029l-0.092-0.037l-0.073-0.007    l-0.063,0.004l-0.083,0.01l-0.073,0.025l-0.075,0.037l-0.058,0.047L1394.435,636.242z"
         fill="#17AC4F"
         id="path3940-0-0-3" /><path
         d="M1394.467,636.206l0.08-0.062l0.105-0.021    l0.136-0.029l0.111-0.01l-0.003-0.02l-0.178,0.014l-0.131,0.036l-0.094,0.043L1394.467,636.206z"
         fill="#65BC46"
         id="path3938-24-8-7" /><path
         d="M1394.282,636.258l-0.006,0.029l0.009,0.057    l0.007,0.027l0.012,0.021l0.014,0.018l0.035,0.04l0.054,0.046l0.057,0.034l0.061,0.034l0.038,0.031l0.054,0.016l0.054,0.013    l0.035-0.004l0.046-0.011l-0.039-0.029l-0.334-0.264l-0.069-0.052l-0.013-0.015l-0.012,0.006L1394.282,636.258z"
         fill="#5FB746"
         id="path3960-10-1-5" /><path
         d="M1394.365,636.785l-0.051-0.072l-0.05-0.07    l-0.081-0.106l-0.079-0.11l-0.068-0.092l-0.027-0.034l0.104-0.016l0.023,0.022l0.045,0.039l0.014,0.011l0.048,0.044l0.025,0.029    l0.026,0.035l0.017,0.028l0.021,0.043l0.014,0.028l0.013,0.023l0.013,0.043l0.005,0.033l0.005,0.039l0.003,0.037l0.002,0.023    l-0.002,0.011l-0.007,0.014H1394.365z"
         fill="#BFD730"
         id="path3962-37-8-8" /><path
         d="M1393.953,636.269l-0.019-0.059    l0.012-0.072l0.017-0.074l0.032-0.068l0.036-0.088l0.094-0.116l0.067-0.05l0.029-0.018l0.008,0.033l0.015,0.057l0.011,0.099    l-0.012,0.072l-0.02,0.06l-0.031,0.077l-0.043,0.064l-0.056,0.063l-0.06,0.044L1393.953,636.269z"
         fill="#5FB746"
         id="path3940-8-2-7-0-3-3-1" /><path
         d="M1392.213,634.382l0.054,0.041l0.078,0.014    l0.083,0.009l0.082-0.008l0.103-0.005l0.153-0.054l0.075-0.051l0.029-0.023l-0.031-0.02l-0.053-0.036l-0.097-0.047l-0.078-0.014    l-0.069-0.001l-0.09,0.004l-0.081,0.021l-0.085,0.034l-0.067,0.046L1392.213,634.382z"
         fill="#17AC4F"
         id="path3940-8-9-1-5-9-00" /><path
         d="M1392.363,634.069l-0.066-0.014l-0.062-0.05    l-0.061-0.056l-0.047-0.067l-0.064-0.081l-0.059-0.151l-0.011-0.09l-0.002-0.037l0.036,0.01l0.063,0.016l0.099,0.042l0.062,0.05    l0.046,0.051l0.056,0.071l0.037,0.075l0.03,0.086l0.009,0.081L1392.363,634.069z"
         fill="#5FB746"
         id="path3940-8-2-7-7-5-8" /><path
         d="M1392.561,633.734l0.056,0.037l0.079,0.008    l0.083,0.003l0.081-0.014l0.103-0.012l0.149-0.065l0.072-0.056l0.028-0.025l-0.032-0.018l-0.056-0.032l-0.1-0.04l-0.079-0.008    l-0.069,0.004l-0.09,0.01l-0.079,0.026l-0.082,0.04l-0.063,0.051L1392.561,633.734z"
         fill="#5FB746"
         id="path3940-8-2-33-9-8" /><path
         d="M1392.642,633.42l0.063,0.024l0.079-0.009    l0.082-0.015l0.076-0.031l0.098-0.034l0.131-0.095l0.058-0.07l0.021-0.03l-0.035-0.01l-0.062-0.02l-0.106-0.018l-0.079,0.009    l-0.067,0.018l-0.086,0.029l-0.072,0.043l-0.072,0.057l-0.051,0.063L1392.642,633.42z"
         fill="#17AC4F"
         id="path3940-8-42-7-23" /><path
         d="M1392.625,633.438l-0.065-0.017l-0.059-0.053    l-0.058-0.059l-0.045-0.069l-0.061-0.084l-0.052-0.154l-0.007-0.091l0-0.037l0.035,0.012l0.062,0.019l0.098,0.047l0.059,0.053    l0.044,0.053l0.053,0.073l0.034,0.076l0.026,0.087l0.005,0.081L1392.625,633.438z"
         fill="#17AC4F"
         id="path3940-8-4-2-2-06" /><path
         d="M1392.417,634.056l0.054,0.041l0.078,0.014    l0.082,0.009l0.082-0.008l0.104-0.005l0.153-0.055l0.075-0.051l0.029-0.023l-0.031-0.02l-0.053-0.036l-0.097-0.047l-0.078-0.014    l-0.069-0.001l-0.09,0.004l-0.081,0.021l-0.085,0.034l-0.067,0.046L1392.417,634.056z"
         fill="#17AC4F"
         id="path3940-8-9-0-0-5" /><path
         d="M1393.046,633.962l-0.096,0.009l-0.092,0.01    l-0.144,0.02l-0.146,0.015l-0.124,0.015l-0.047,0.007l0.041-0.106l0.033-0.01l0.061-0.022l0.018-0.007l0.067-0.021l0.04-0.008    l0.047-0.005l0.035-0.001l0.051,0.003l0.034,0.002l0.029,0.001l0.047,0.011l0.034,0.013l0.039,0.016l0.036,0.017l0.022,0.01    l0.009,0.008l0.01,0.014L1393.046,633.962z"
         fill="#BFD730"
         id="path3962-7-1-2-0" /><path
         d="M1391.78,634.746l0.146-0.126l0.153-0.165    l0.178-0.262l0.089-0.169l0.126-0.237l0.226-0.546l0.033,0l-0.103,0.27l-0.047,0.158l-0.099,0.206l-0.092,0.2l-0.077,0.108    l-0.142,0.23l-0.196,0.213l-0.12,0.165l-0.067,0.061L1391.78,634.746z"
         fill="#5FB746"
         id="path3936-2-8-9" /><path
         d="M1392.135,634.339l-0.065-0.017    l-0.059-0.053l-0.058-0.059l-0.045-0.069l-0.061-0.084l-0.052-0.154l-0.007-0.091l0-0.037l0.035,0.012l0.062,0.019l0.097,0.047    l0.059,0.053l0.044,0.053l0.053,0.073l0.034,0.076l0.026,0.088l0.005,0.081L1392.135,634.339z"
         fill="#17AC4F"
         id="path3940-8-4-9-7-6-72" /><path
         d="M1392.842,634.288l-0.096,0.009l-0.092,0.01    l-0.144,0.02l-0.146,0.015l-0.124,0.015l-0.047,0.007l0.041-0.106l0.033-0.01l0.061-0.022l0.018-0.007l0.067-0.021l0.04-0.008    l0.047-0.005l0.035-0.001l0.051,0.003l0.034,0.002l0.029,0.001l0.047,0.01l0.034,0.013l0.039,0.016l0.036,0.017l0.023,0.01    l0.009,0.008l0.01,0.014L1392.842,634.288z"
         fill="#BFD730"
         id="path3962-7-4-7-7-2" /><path
         d="M1392.732,633.26l0.06-0.031l0.046-0.065    l0.043-0.071l0.027-0.077l0.04-0.095l0.016-0.161l-0.014-0.09l-0.009-0.036l-0.031,0.02l-0.056,0.033l-0.084,0.068l-0.046,0.065    l-0.03,0.062l-0.035,0.084l-0.016,0.082l-0.005,0.091l0.014,0.08L1392.732,633.26z"
         fill="#17AC4F"
         id="path3940-0-0-8" /><path
         d="M1392.715,633.211l-0.016-0.109l0.037-0.111    l0.046-0.144l0.05-0.11l-0.02-0.008l-0.082,0.176l-0.036,0.144l-0.01,0.113L1392.715,633.211z"
         fill="#65BC46"
         id="path3938-24-8-2" /><path
         d="M1392.665,633.415l0.024,0.021l0.059,0.022    l0.029,0.008l0.026,0l0.025-0.003l0.056-0.011l0.072-0.026l0.063-0.036l0.064-0.039l0.05-0.018l0.043-0.042l0.041-0.045    l0.016-0.035l0.014-0.049l-0.048,0.021l-0.429,0.173l-0.086,0.037l-0.021,0.005l-0.001,0.014L1392.665,633.415z"
         fill="#5FB746"
         id="path3960-10-1-9" /><path
         d="M1393.207,633.619l-0.096,0.009l-0.092,0.01    l-0.144,0.02l-0.146,0.015l-0.124,0.015l-0.047,0.007l0.041-0.106l0.033-0.01l0.061-0.022l0.018-0.007l0.067-0.021l0.04-0.008    l0.047-0.005l0.035-0.001l0.051,0.003l0.034,0.002l0.029,0.001l0.047,0.011l0.034,0.013l0.039,0.016l0.036,0.017l0.022,0.01    l0.009,0.008l0.01,0.014L1393.207,633.619z"
         fill="#BFD730"
         id="path3962-37-8-4" /><path
         d="M1392.498,633.732l-0.066-0.014    l-0.062-0.05l-0.061-0.056l-0.048-0.067l-0.064-0.081l-0.059-0.151l-0.011-0.09l-0.002-0.037l0.036,0.01l0.062,0.016l0.099,0.042    l0.062,0.05l0.046,0.051l0.056,0.071l0.037,0.075l0.03,0.086l0.009,0.081L1392.498,633.732z"
         fill="#5FB746"
         id="path3940-8-2-7-0-3-3-4" /><path
         d="M1392.934,634.757l0.049,0.049l0.078,0.026    l0.082,0.022l0.084,0.004l0.106,0.011l0.164-0.032l0.084-0.041l0.033-0.019l-0.029-0.025l-0.049-0.045l-0.092-0.063l-0.078-0.026    l-0.07-0.012l-0.093-0.009l-0.086,0.009l-0.091,0.022l-0.075,0.037L1392.934,634.757z"
         fill="#17AC4F"
         id="path3940-8-9-1-5-9-8" /><path
         d="M1393.134,634.461l-0.065-0.024l-0.055-0.06    l-0.054-0.066l-0.038-0.075l-0.053-0.092l-0.038-0.163l0.002-0.094l0.004-0.038l0.035,0.016l0.061,0.026l0.095,0.058l0.055,0.06    l0.039,0.059l0.047,0.081l0.027,0.082l0.018,0.092l-0.003,0.084L1393.134,634.461z"
         fill="#5FB746"
         id="path3940-8-2-7-7-5-2" /><path
         d="M1393.385,634.149l0.052,0.046l0.079,0.02    l0.084,0.016l0.084-0.002l0.106,0.003l0.161-0.044l0.081-0.046l0.032-0.021l-0.03-0.023l-0.052-0.042l-0.096-0.056l-0.079-0.02    l-0.071-0.007l-0.093-0.003l-0.085,0.015l-0.09,0.028l-0.072,0.042L1393.385,634.149z"
         fill="#5FB746"
         id="path3940-8-2-33-9-7" /><path
         d="M1393.515,633.842l0.06,0.034l0.082,0.003    l0.085-0.003l0.082-0.02l0.104-0.02l0.148-0.078l0.069-0.063l0.026-0.028l-0.035-0.016l-0.06-0.029l-0.106-0.034l-0.082-0.003    l-0.07,0.009l-0.092,0.017l-0.079,0.033l-0.081,0.047l-0.062,0.057L1393.515,633.842z"
         fill="#17AC4F"
         id="path3940-8-42-7-25" /><path
         d="M1393.495,633.858l-0.064-0.027l-0.052-0.063    l-0.051-0.069l-0.035-0.077l-0.049-0.094l-0.031-0.164l0.006-0.093l0.005-0.038l0.034,0.017l0.06,0.029l0.092,0.062l0.053,0.063    l0.037,0.061l0.043,0.083l0.023,0.083l0.013,0.093l-0.007,0.083L1393.495,633.858z"
         fill="#17AC4F"
         id="path3940-8-4-2-2-84" /><path
         d="M1393.191,634.456l0.049,0.049l0.078,0.026    l0.083,0.022l0.084,0.004l0.106,0.011l0.164-0.032l0.084-0.04l0.033-0.019l-0.029-0.025l-0.049-0.045l-0.092-0.063l-0.078-0.026    l-0.07-0.012l-0.093-0.009l-0.085,0.009l-0.091,0.022l-0.075,0.037L1393.191,634.456z"
         fill="#17AC4F"
         id="path3940-8-9-0-0-7" /><path
         d="M1393.845,634.454l-0.099-0.005l-0.096-0.004    l-0.149-0.001l-0.151-0.006l-0.128-0.004l-0.049,0.001l0.057-0.102l0.035-0.005l0.065-0.013l0.019-0.005l0.072-0.012l0.042-0.002    l0.048,0.002l0.036,0.004l0.052,0.011l0.034,0.007l0.029,0.005l0.047,0.018l0.032,0.018l0.037,0.022l0.035,0.023l0.021,0.014    l0.008,0.01l0.008,0.016L1393.845,634.454z"
         fill="#BFD730"
         id="path3962-7-1-2-39" /><path
         d="M1392.439,635.063l0.167-0.107l0.18-0.146    l0.221-0.24l0.115-0.158l0.164-0.222l0.312-0.521l0.033,0.004l-0.145,0.26l-0.071,0.154l-0.132,0.195l-0.124,0.19l-0.095,0.098    l-0.179,0.213l-0.231,0.187l-0.147,0.15l-0.077,0.052L1392.439,635.063z"
         fill="#5FB746"
         id="path3936-2-8-5" /><path
         d="M1392.861,634.702l-0.064-0.027    l-0.053-0.063l-0.051-0.068l-0.035-0.077l-0.049-0.094l-0.031-0.164l0.006-0.093l0.005-0.038l0.034,0.017l0.06,0.029l0.092,0.062    l0.052,0.063l0.037,0.061l0.043,0.083l0.023,0.083l0.014,0.093l-0.007,0.083L1392.861,634.702z"
         fill="#17AC4F"
         id="path3940-8-4-9-7-6-19" /><path
         d="M1393.589,634.756l-0.099-0.005l-0.096-0.004    l-0.149-0.001l-0.151-0.006l-0.128-0.003l-0.049,0l0.057-0.102l0.035-0.005l0.065-0.013l0.019-0.005l0.072-0.012l0.042-0.002    l0.049,0.002l0.036,0.004l0.052,0.011l0.034,0.007l0.029,0.005l0.046,0.018l0.032,0.018l0.037,0.022l0.035,0.023l0.021,0.014    l0.008,0.01l0.008,0.016L1393.589,634.756z"
         fill="#BFD730"
         id="path3962-7-4-7-7-0" /><path
         d="M1393.63,633.693l0.065-0.023l0.056-0.059    l0.055-0.066l0.039-0.075l0.055-0.091l0.04-0.162l-0.001-0.094l-0.003-0.038l-0.035,0.015l-0.062,0.025l-0.096,0.056l-0.056,0.059    l-0.04,0.059l-0.048,0.08l-0.028,0.081l-0.019,0.092l0.002,0.084L1393.63,633.693z"
         fill="#17AC4F"
         id="path3940-0-0-2" /><path
         d="M1393.62,633.641l0.001-0.113l0.054-0.107    l0.068-0.14l0.067-0.104l-0.019-0.011l-0.11,0.167l-0.058,0.141l-0.026,0.113L1393.62,633.641z"
         fill="#65BC46"
         id="path3938-24-8-8" /><path
         d="M1393.539,633.84l0.021,0.025l0.057,0.031    l0.029,0.012l0.026,0.003l0.026,0l0.059-0.003l0.078-0.016l0.069-0.027l0.072-0.03l0.054-0.011l0.051-0.037l0.048-0.039    l0.021-0.033l0.021-0.048l-0.052,0.015l-0.463,0.113l-0.093,0.025l-0.022,0.002l-0.004,0.014L1393.539,633.84z"
         fill="#5FB746"
         id="path3960-10-1-3" /><path
         d="M1394.06,634.129l-0.099-0.005l-0.096-0.004    l-0.149-0.001l-0.151-0.006l-0.128-0.003l-0.049,0.001l0.057-0.102l0.035-0.005l0.065-0.013l0.019-0.005l0.072-0.012l0.042-0.002    l0.048,0.002l0.036,0.004l0.052,0.011l0.034,0.007l0.029,0.005l0.047,0.018l0.032,0.018l0.037,0.023l0.034,0.023l0.021,0.014    l0.008,0.01l0.008,0.016L1394.06,634.129z"
         fill="#BFD730"
         id="path3962-37-8-1" /><path
         d="M1393.321,634.138l-0.065-0.024    l-0.055-0.06l-0.054-0.066l-0.038-0.075l-0.053-0.092l-0.037-0.163l0.002-0.094l0.004-0.038l0.035,0.016l0.061,0.026l0.095,0.058    l0.055,0.06l0.039,0.059l0.047,0.081l0.027,0.082l0.018,0.092l-0.003,0.084L1393.321,634.138z"
         fill="#5FB746"
         id="path3940-8-2-7-0-3-3-43" /><path
         d="M1390.184,658.344    l0.251-1.71l1.053-3.033l-0.101-0.667l1.087,0.391l0.463,4.98l-0.763,2.946l-0.127,0.339l-0.005,0.004l-1.801-2.487    L1390.184,658.344z"
         fill="#010101"
         id="path5477" /><path
         d="    M1384.5,650.45l-0.077-0.207l3.078,0.052l2.093-0.047l0.988-0.024l-0.306,1.106l0.212,0.188l0.212,0.047l0.282,0.117l0.188,0.071    l0.306-0.024l0.07-0.094l0.141,0.117l0.306-0.024l0.141-0.117l0.118,0.047h0.165l0.165-0.118l0.188,0.024l0.188-0.235l0.188,0.023    l0.07-0.211l0.094-0.141h0.141l0.188-0.118l0.141-0.235l0.094-0.188l0.212-0.165l0.094-0.141l1.788,0.094l1.999,0.117l1.576,0.118    l0.043,0.089l-1.74,3.138l-1.111,1.868l-1.236,1.795l-1.481,1.943l-1.565,1.708l-0.379,0.398l-1.404-1.47l-0.682-0.776    l-1.345-1.689l-0.842-1.204l-1.059-1.737l-1.406-2.63l-0.4-0.706L1384.5,650.45z"
         fill="#2677BD"
         id="path5479" /><path
         d="M1384.466,650.551    l0.897,1.692l0.612,1.142l1.386,2.284l1.713,2.528l2.039,2.365l0.958,0.959l0.224-0.224l1.652-1.815l1.366-1.692l1.876-2.753    l1.285-2.263l0.836-1.529l0.306-0.713"
         fill="none"
         id="path5481" /><path
         d="M1392.173,637.218l0.208-0.391l0.092-0.208l0.154-0.222    l0.275-0.237l0.208-0.125l0.145-0.053l-0.208,0.057l-0.294,0.121l-0.266,0.218l-0.15,0.198l-0.087,0.136l-0.077,0.14V637.218z"
         fill="#3E2015"
         id="path5485" /><path
         d="M1386.864,651.305l1.321-0.125h0.498l0,0"
         fill="none"
         id="path5532-0" /><path
         d="M1386.714,652.502l2.393-0.075h-0.025"
         fill="none"
         id="path5534-5" /><path
         d="M1389.007,652.003l1.944-0.15"
         fill="none"
         id="path5536-1" /><path
         d="M1390.777,652.526l1.346-0.025"
         fill="none"
         id="path5538-2" /><path
         d="M1390.976,652.676l0.922-0.025"
         fill="none"
         id="path5540-0" /><path
         d="M1386.64,652.576l2.642-0.124"
         fill="none"
         id="path5542-9" /><path
         d="M1388.708,653.274l1.769-0.1l0,0"
         fill="none"
         id="path5544-8" /><path
         d="M1390.752,652.452l1.495,0.025v0.025l0,0"
         fill="none"
         id="path5546-9" /><path
         d="M1391.051,652.626h0.922"
         fill="none"
         id="path5548-1" /><path
         d="M1388.683,653.274l1.77-0.05"
         fill="none"
         id="path5550-7" /><path
         d="M1387.188,654.296l0.822-0.075"
         fill="none"
         id="path5552-3" /><path
         d="M1387.612,654.745l1.121-0.025"
         fill="none"
         id="path5554-3" /><path
         d="M1390.378,654.969l1.545-0.05"
         fill="none"
         id="path5556-0" /><path
         d="M1390.976,654.471h0.922"
         fill="none"
         id="path5558-7" /><path
         d="M1388.708,653.249l1.595-0.075"
         fill="none"
         id="path5560-6" /><path
         d="M1387.063,654.246l0.972,0.025l0.025-0.025"
         fill="none"
         id="path5562-6" /><path
         d="M1387.612,654.72l0.947-0.025"
         fill="none"
         id="path5564-0" /><path
         d="M1389.182,656.813l1.495-0.075l0,0"
         fill="none"
         id="path5566-2" /><path
         d="M1392.746,656.988h0.947"
         fill="none"
         id="path5568-8" /><path
         d="M1393.194,657.586l0.972,0.025"
         fill="none"
         id="path5570-9" /><path
         d="M1394.391,653.025l2.417,0.125"
         fill="none"
         id="path5572-8" /><path
         d="M1393.593,652.377l1.421,0.05"
         fill="none"
         id="path5574-9" /><path
         d="M1394.615,651.255l1.769,0.075l0.922,0.099"
         fill="none"
         id="path5576-9" /><path
         d="M1380.712,630.04l0.558,0.279l1.033,0.405l1.493,0.488    l1.437,0.349l1.158,0.14l0.656,0.042h1.144l1.87-0.265l1.13-0.265l0.433-0.209l0.349-0.167l0.14-0.042l0.781,0.377l1.228,0.321    l0.767,0.181l1.591,0.098l1.019-0.042l1.117-0.112l0.837-0.167l0.809-0.251l1.103-0.335l1.13-0.419l0.837-0.335l0.042-0.042    l-0.167,5.233l0.028,1.535l-0.084,1.786l-0.084,1.2l-4.549,0.153h-12.825l-4.549,0.028l-0.154-0.823l-0.112-1.172l-0.126-6.336    L1380.712,630.04z"
         fill="none"
         id="path3352" /></g></g></svg>